<?xml version="1.0" encoding="utf-8" standalone="no"?>
<!DOCTYPE svg PUBLIC "-//W3C//DTD SVG 1.1//EN"
  "http://www.w3.org/Graphics/SVG/1.1/DTD/svg11.dtd">
<!-- Created with matplotlib (http://matplotlib.org/) -->
<svg height="345pt" version="1.1" viewBox="0 0 460 345" width="460pt" xmlns="http://www.w3.org/2000/svg" xmlns:xlink="http://www.w3.org/1999/xlink">
 <defs>
  <style type="text/css">
*{stroke-linecap:butt;stroke-linejoin:round;}
  </style>
 </defs>
 <g id="figure_1">
  <g id="patch_1">
   <path d="M 0 345.6 
L 460.8 345.6 
L 460.8 0 
L 0 0 
z
" style="fill:#ffffff;"/>
  </g>
  <g id="axes_1">
   <g id="patch_2">
    <path d="M 57.6 307.584 
L 414.72 307.584 
L 414.72 41.472 
L 57.6 41.472 
z
" style="fill:#ffffff;"/>
   </g>
   <g id="matplotlib.axis_1">
    <g id="xtick_1">
     <g id="line2d_1">
      <defs>
       <path d="M 0 0 
L 0 3.5 
" id="mf3f76b31ff" style="stroke:#000000;stroke-width:0.8;"/>
      </defs>
      <g>
       <use style="stroke:#000000;stroke-width:0.8;" x="73.832727" xlink:href="#mf3f76b31ff" y="307.584"/>
      </g>
     </g>
     <g id="text_1">
      <!-- 0 -->
      <defs>
       <path d="M 31.78125 66.40625 
Q 24.171875 66.40625 20.328125 58.90625 
Q 16.5 51.421875 16.5 36.375 
Q 16.5 21.390625 20.328125 13.890625 
Q 24.171875 6.390625 31.78125 6.390625 
Q 39.453125 6.390625 43.28125 13.890625 
Q 47.125 21.390625 47.125 36.375 
Q 47.125 51.421875 43.28125 58.90625 
Q 39.453125 66.40625 31.78125 66.40625 
z
M 31.78125 74.21875 
Q 44.046875 74.21875 50.515625 64.515625 
Q 56.984375 54.828125 56.984375 36.375 
Q 56.984375 17.96875 50.515625 8.265625 
Q 44.046875 -1.421875 31.78125 -1.421875 
Q 19.53125 -1.421875 13.0625 8.265625 
Q 6.59375 17.96875 6.59375 36.375 
Q 6.59375 54.828125 13.0625 64.515625 
Q 19.53125 74.21875 31.78125 74.21875 
z
" id="DejaVuSans-30"/>
      </defs>
      <g transform="translate(70.651477 322.182437)scale(0.1 -0.1)">
       <use xlink:href="#DejaVuSans-30"/>
      </g>
     </g>
    </g>
    <g id="xtick_2">
     <g id="line2d_2">
      <g>
       <use style="stroke:#000000;stroke-width:0.8;" x="138.828632" xlink:href="#mf3f76b31ff" y="307.584"/>
      </g>
     </g>
     <g id="text_2">
      <!-- 200 -->
      <defs>
       <path d="M 19.1875 8.296875 
L 53.609375 8.296875 
L 53.609375 0 
L 7.328125 0 
L 7.328125 8.296875 
Q 12.9375 14.109375 22.625 23.890625 
Q 32.328125 33.6875 34.8125 36.53125 
Q 39.546875 41.84375 41.421875 45.53125 
Q 43.3125 49.21875 43.3125 52.78125 
Q 43.3125 58.59375 39.234375 62.25 
Q 35.15625 65.921875 28.609375 65.921875 
Q 23.96875 65.921875 18.8125 64.3125 
Q 13.671875 62.703125 7.8125 59.421875 
L 7.8125 69.390625 
Q 13.765625 71.78125 18.9375 73 
Q 24.125 74.21875 28.421875 74.21875 
Q 39.75 74.21875 46.484375 68.546875 
Q 53.21875 62.890625 53.21875 53.421875 
Q 53.21875 48.921875 51.53125 44.890625 
Q 49.859375 40.875 45.40625 35.40625 
Q 44.1875 33.984375 37.640625 27.21875 
Q 31.109375 20.453125 19.1875 8.296875 
z
" id="DejaVuSans-32"/>
      </defs>
      <g transform="translate(129.284882 322.182437)scale(0.1 -0.1)">
       <use xlink:href="#DejaVuSans-32"/>
       <use x="63.623047" xlink:href="#DejaVuSans-30"/>
       <use x="127.246094" xlink:href="#DejaVuSans-30"/>
      </g>
     </g>
    </g>
    <g id="xtick_3">
     <g id="line2d_3">
      <g>
       <use style="stroke:#000000;stroke-width:0.8;" x="203.824537" xlink:href="#mf3f76b31ff" y="307.584"/>
      </g>
     </g>
     <g id="text_3">
      <!-- 400 -->
      <defs>
       <path d="M 37.796875 64.3125 
L 12.890625 25.390625 
L 37.796875 25.390625 
z
M 35.203125 72.90625 
L 47.609375 72.90625 
L 47.609375 25.390625 
L 58.015625 25.390625 
L 58.015625 17.1875 
L 47.609375 17.1875 
L 47.609375 0 
L 37.796875 0 
L 37.796875 17.1875 
L 4.890625 17.1875 
L 4.890625 26.703125 
z
" id="DejaVuSans-34"/>
      </defs>
      <g transform="translate(194.280787 322.182437)scale(0.1 -0.1)">
       <use xlink:href="#DejaVuSans-34"/>
       <use x="63.623047" xlink:href="#DejaVuSans-30"/>
       <use x="127.246094" xlink:href="#DejaVuSans-30"/>
      </g>
     </g>
    </g>
    <g id="xtick_4">
     <g id="line2d_4">
      <g>
       <use style="stroke:#000000;stroke-width:0.8;" x="268.820442" xlink:href="#mf3f76b31ff" y="307.584"/>
      </g>
     </g>
     <g id="text_4">
      <!-- 600 -->
      <defs>
       <path d="M 33.015625 40.375 
Q 26.375 40.375 22.484375 35.828125 
Q 18.609375 31.296875 18.609375 23.390625 
Q 18.609375 15.53125 22.484375 10.953125 
Q 26.375 6.390625 33.015625 6.390625 
Q 39.65625 6.390625 43.53125 10.953125 
Q 47.40625 15.53125 47.40625 23.390625 
Q 47.40625 31.296875 43.53125 35.828125 
Q 39.65625 40.375 33.015625 40.375 
z
M 52.59375 71.296875 
L 52.59375 62.3125 
Q 48.875 64.0625 45.09375 64.984375 
Q 41.3125 65.921875 37.59375 65.921875 
Q 27.828125 65.921875 22.671875 59.328125 
Q 17.53125 52.734375 16.796875 39.40625 
Q 19.671875 43.65625 24.015625 45.921875 
Q 28.375 48.1875 33.59375 48.1875 
Q 44.578125 48.1875 50.953125 41.515625 
Q 57.328125 34.859375 57.328125 23.390625 
Q 57.328125 12.15625 50.6875 5.359375 
Q 44.046875 -1.421875 33.015625 -1.421875 
Q 20.359375 -1.421875 13.671875 8.265625 
Q 6.984375 17.96875 6.984375 36.375 
Q 6.984375 53.65625 15.1875 63.9375 
Q 23.390625 74.21875 37.203125 74.21875 
Q 40.921875 74.21875 44.703125 73.484375 
Q 48.484375 72.75 52.59375 71.296875 
z
" id="DejaVuSans-36"/>
      </defs>
      <g transform="translate(259.276692 322.182437)scale(0.1 -0.1)">
       <use xlink:href="#DejaVuSans-36"/>
       <use x="63.623047" xlink:href="#DejaVuSans-30"/>
       <use x="127.246094" xlink:href="#DejaVuSans-30"/>
      </g>
     </g>
    </g>
    <g id="xtick_5">
     <g id="line2d_5">
      <g>
       <use style="stroke:#000000;stroke-width:0.8;" x="333.816347" xlink:href="#mf3f76b31ff" y="307.584"/>
      </g>
     </g>
     <g id="text_5">
      <!-- 800 -->
      <defs>
       <path d="M 31.78125 34.625 
Q 24.75 34.625 20.71875 30.859375 
Q 16.703125 27.09375 16.703125 20.515625 
Q 16.703125 13.921875 20.71875 10.15625 
Q 24.75 6.390625 31.78125 6.390625 
Q 38.8125 6.390625 42.859375 10.171875 
Q 46.921875 13.96875 46.921875 20.515625 
Q 46.921875 27.09375 42.890625 30.859375 
Q 38.875 34.625 31.78125 34.625 
z
M 21.921875 38.8125 
Q 15.578125 40.375 12.03125 44.71875 
Q 8.5 49.078125 8.5 55.328125 
Q 8.5 64.0625 14.71875 69.140625 
Q 20.953125 74.21875 31.78125 74.21875 
Q 42.671875 74.21875 48.875 69.140625 
Q 55.078125 64.0625 55.078125 55.328125 
Q 55.078125 49.078125 51.53125 44.71875 
Q 48 40.375 41.703125 38.8125 
Q 48.828125 37.15625 52.796875 32.3125 
Q 56.78125 27.484375 56.78125 20.515625 
Q 56.78125 9.90625 50.3125 4.234375 
Q 43.84375 -1.421875 31.78125 -1.421875 
Q 19.734375 -1.421875 13.25 4.234375 
Q 6.78125 9.90625 6.78125 20.515625 
Q 6.78125 27.484375 10.78125 32.3125 
Q 14.796875 37.15625 21.921875 38.8125 
z
M 18.3125 54.390625 
Q 18.3125 48.734375 21.84375 45.5625 
Q 25.390625 42.390625 31.78125 42.390625 
Q 38.140625 42.390625 41.71875 45.5625 
Q 45.3125 48.734375 45.3125 54.390625 
Q 45.3125 60.0625 41.71875 63.234375 
Q 38.140625 66.40625 31.78125 66.40625 
Q 25.390625 66.40625 21.84375 63.234375 
Q 18.3125 60.0625 18.3125 54.390625 
z
" id="DejaVuSans-38"/>
      </defs>
      <g transform="translate(324.272597 322.182437)scale(0.1 -0.1)">
       <use xlink:href="#DejaVuSans-38"/>
       <use x="63.623047" xlink:href="#DejaVuSans-30"/>
       <use x="127.246094" xlink:href="#DejaVuSans-30"/>
      </g>
     </g>
    </g>
    <g id="xtick_6">
     <g id="line2d_6">
      <g>
       <use style="stroke:#000000;stroke-width:0.8;" x="398.812252" xlink:href="#mf3f76b31ff" y="307.584"/>
      </g>
     </g>
     <g id="text_6">
      <!-- 1000 -->
      <defs>
       <path d="M 12.40625 8.296875 
L 28.515625 8.296875 
L 28.515625 63.921875 
L 10.984375 60.40625 
L 10.984375 69.390625 
L 28.421875 72.90625 
L 38.28125 72.90625 
L 38.28125 8.296875 
L 54.390625 8.296875 
L 54.390625 0 
L 12.40625 0 
z
" id="DejaVuSans-31"/>
      </defs>
      <g transform="translate(386.087252 322.182437)scale(0.1 -0.1)">
       <use xlink:href="#DejaVuSans-31"/>
       <use x="63.623047" xlink:href="#DejaVuSans-30"/>
       <use x="127.246094" xlink:href="#DejaVuSans-30"/>
       <use x="190.869141" xlink:href="#DejaVuSans-30"/>
      </g>
     </g>
    </g>
    <g id="text_7">
     <!-- Iteration -->
     <defs>
      <path d="M 9.8125 72.90625 
L 19.671875 72.90625 
L 19.671875 0 
L 9.8125 0 
z
" id="DejaVuSans-49"/>
      <path d="M 18.3125 70.21875 
L 18.3125 54.6875 
L 36.8125 54.6875 
L 36.8125 47.703125 
L 18.3125 47.703125 
L 18.3125 18.015625 
Q 18.3125 11.328125 20.140625 9.421875 
Q 21.96875 7.515625 27.59375 7.515625 
L 36.8125 7.515625 
L 36.8125 0 
L 27.59375 0 
Q 17.1875 0 13.234375 3.875 
Q 9.28125 7.765625 9.28125 18.015625 
L 9.28125 47.703125 
L 2.6875 47.703125 
L 2.6875 54.6875 
L 9.28125 54.6875 
L 9.28125 70.21875 
z
" id="DejaVuSans-74"/>
      <path d="M 56.203125 29.59375 
L 56.203125 25.203125 
L 14.890625 25.203125 
Q 15.484375 15.921875 20.484375 11.0625 
Q 25.484375 6.203125 34.421875 6.203125 
Q 39.59375 6.203125 44.453125 7.46875 
Q 49.3125 8.734375 54.109375 11.28125 
L 54.109375 2.78125 
Q 49.265625 0.734375 44.1875 -0.34375 
Q 39.109375 -1.421875 33.890625 -1.421875 
Q 20.796875 -1.421875 13.15625 6.1875 
Q 5.515625 13.8125 5.515625 26.8125 
Q 5.515625 40.234375 12.765625 48.109375 
Q 20.015625 56 32.328125 56 
Q 43.359375 56 49.78125 48.890625 
Q 56.203125 41.796875 56.203125 29.59375 
z
M 47.21875 32.234375 
Q 47.125 39.59375 43.09375 43.984375 
Q 39.0625 48.390625 32.421875 48.390625 
Q 24.90625 48.390625 20.390625 44.140625 
Q 15.875 39.890625 15.1875 32.171875 
z
" id="DejaVuSans-65"/>
      <path d="M 41.109375 46.296875 
Q 39.59375 47.171875 37.8125 47.578125 
Q 36.03125 48 33.890625 48 
Q 26.265625 48 22.1875 43.046875 
Q 18.109375 38.09375 18.109375 28.8125 
L 18.109375 0 
L 9.078125 0 
L 9.078125 54.6875 
L 18.109375 54.6875 
L 18.109375 46.1875 
Q 20.953125 51.171875 25.484375 53.578125 
Q 30.03125 56 36.53125 56 
Q 37.453125 56 38.578125 55.875 
Q 39.703125 55.765625 41.0625 55.515625 
z
" id="DejaVuSans-72"/>
      <path d="M 34.28125 27.484375 
Q 23.390625 27.484375 19.1875 25 
Q 14.984375 22.515625 14.984375 16.5 
Q 14.984375 11.71875 18.140625 8.90625 
Q 21.296875 6.109375 26.703125 6.109375 
Q 34.1875 6.109375 38.703125 11.40625 
Q 43.21875 16.703125 43.21875 25.484375 
L 43.21875 27.484375 
z
M 52.203125 31.203125 
L 52.203125 0 
L 43.21875 0 
L 43.21875 8.296875 
Q 40.140625 3.328125 35.546875 0.953125 
Q 30.953125 -1.421875 24.3125 -1.421875 
Q 15.921875 -1.421875 10.953125 3.296875 
Q 6 8.015625 6 15.921875 
Q 6 25.140625 12.171875 29.828125 
Q 18.359375 34.515625 30.609375 34.515625 
L 43.21875 34.515625 
L 43.21875 35.40625 
Q 43.21875 41.609375 39.140625 45 
Q 35.0625 48.390625 27.6875 48.390625 
Q 23 48.390625 18.546875 47.265625 
Q 14.109375 46.140625 10.015625 43.890625 
L 10.015625 52.203125 
Q 14.9375 54.109375 19.578125 55.046875 
Q 24.21875 56 28.609375 56 
Q 40.484375 56 46.34375 49.84375 
Q 52.203125 43.703125 52.203125 31.203125 
z
" id="DejaVuSans-61"/>
      <path d="M 9.421875 54.6875 
L 18.40625 54.6875 
L 18.40625 0 
L 9.421875 0 
z
M 9.421875 75.984375 
L 18.40625 75.984375 
L 18.40625 64.59375 
L 9.421875 64.59375 
z
" id="DejaVuSans-69"/>
      <path d="M 30.609375 48.390625 
Q 23.390625 48.390625 19.1875 42.75 
Q 14.984375 37.109375 14.984375 27.296875 
Q 14.984375 17.484375 19.15625 11.84375 
Q 23.34375 6.203125 30.609375 6.203125 
Q 37.796875 6.203125 41.984375 11.859375 
Q 46.1875 17.53125 46.1875 27.296875 
Q 46.1875 37.015625 41.984375 42.703125 
Q 37.796875 48.390625 30.609375 48.390625 
z
M 30.609375 56 
Q 42.328125 56 49.015625 48.375 
Q 55.71875 40.765625 55.71875 27.296875 
Q 55.71875 13.875 49.015625 6.21875 
Q 42.328125 -1.421875 30.609375 -1.421875 
Q 18.84375 -1.421875 12.171875 6.21875 
Q 5.515625 13.875 5.515625 27.296875 
Q 5.515625 40.765625 12.171875 48.375 
Q 18.84375 56 30.609375 56 
z
" id="DejaVuSans-6f"/>
      <path d="M 54.890625 33.015625 
L 54.890625 0 
L 45.90625 0 
L 45.90625 32.71875 
Q 45.90625 40.484375 42.875 44.328125 
Q 39.84375 48.1875 33.796875 48.1875 
Q 26.515625 48.1875 22.3125 43.546875 
Q 18.109375 38.921875 18.109375 30.90625 
L 18.109375 0 
L 9.078125 0 
L 9.078125 54.6875 
L 18.109375 54.6875 
L 18.109375 46.1875 
Q 21.34375 51.125 25.703125 53.5625 
Q 30.078125 56 35.796875 56 
Q 45.21875 56 50.046875 50.171875 
Q 54.890625 44.34375 54.890625 33.015625 
z
" id="DejaVuSans-6e"/>
     </defs>
     <g transform="translate(214.951406 335.860562)scale(0.1 -0.1)">
      <use xlink:href="#DejaVuSans-49"/>
      <use x="29.492188" xlink:href="#DejaVuSans-74"/>
      <use x="68.701172" xlink:href="#DejaVuSans-65"/>
      <use x="130.224609" xlink:href="#DejaVuSans-72"/>
      <use x="171.337891" xlink:href="#DejaVuSans-61"/>
      <use x="232.617188" xlink:href="#DejaVuSans-74"/>
      <use x="271.826172" xlink:href="#DejaVuSans-69"/>
      <use x="299.609375" xlink:href="#DejaVuSans-6f"/>
      <use x="360.791016" xlink:href="#DejaVuSans-6e"/>
     </g>
    </g>
   </g>
   <g id="matplotlib.axis_2">
    <g id="ytick_1">
     <g id="line2d_7">
      <defs>
       <path d="M 0 0 
L -3.5 0 
" id="me0e14c3a58" style="stroke:#000000;stroke-width:0.8;"/>
      </defs>
      <g>
       <use style="stroke:#000000;stroke-width:0.8;" x="57.6" xlink:href="#me0e14c3a58" y="302.414111"/>
      </g>
     </g>
     <g id="text_8">
      <!-- 8000 -->
      <g transform="translate(25.15 306.21333)scale(0.1 -0.1)">
       <use xlink:href="#DejaVuSans-38"/>
       <use x="63.623047" xlink:href="#DejaVuSans-30"/>
       <use x="127.246094" xlink:href="#DejaVuSans-30"/>
       <use x="190.869141" xlink:href="#DejaVuSans-30"/>
      </g>
     </g>
    </g>
    <g id="ytick_2">
     <g id="line2d_8">
      <g>
       <use style="stroke:#000000;stroke-width:0.8;" x="57.6" xlink:href="#me0e14c3a58" y="261.184247"/>
      </g>
     </g>
     <g id="text_9">
      <!-- 8500 -->
      <defs>
       <path d="M 10.796875 72.90625 
L 49.515625 72.90625 
L 49.515625 64.59375 
L 19.828125 64.59375 
L 19.828125 46.734375 
Q 21.96875 47.46875 24.109375 47.828125 
Q 26.265625 48.1875 28.421875 48.1875 
Q 40.625 48.1875 47.75 41.5 
Q 54.890625 34.8125 54.890625 23.390625 
Q 54.890625 11.625 47.5625 5.09375 
Q 40.234375 -1.421875 26.90625 -1.421875 
Q 22.3125 -1.421875 17.546875 -0.640625 
Q 12.796875 0.140625 7.71875 1.703125 
L 7.71875 11.625 
Q 12.109375 9.234375 16.796875 8.0625 
Q 21.484375 6.890625 26.703125 6.890625 
Q 35.15625 6.890625 40.078125 11.328125 
Q 45.015625 15.765625 45.015625 23.390625 
Q 45.015625 31 40.078125 35.4375 
Q 35.15625 39.890625 26.703125 39.890625 
Q 22.75 39.890625 18.8125 39.015625 
Q 14.890625 38.140625 10.796875 36.28125 
z
" id="DejaVuSans-35"/>
      </defs>
      <g transform="translate(25.15 264.983466)scale(0.1 -0.1)">
       <use xlink:href="#DejaVuSans-38"/>
       <use x="63.623047" xlink:href="#DejaVuSans-35"/>
       <use x="127.246094" xlink:href="#DejaVuSans-30"/>
       <use x="190.869141" xlink:href="#DejaVuSans-30"/>
      </g>
     </g>
    </g>
    <g id="ytick_3">
     <g id="line2d_9">
      <g>
       <use style="stroke:#000000;stroke-width:0.8;" x="57.6" xlink:href="#me0e14c3a58" y="219.954384"/>
      </g>
     </g>
     <g id="text_10">
      <!-- 9000 -->
      <defs>
       <path d="M 10.984375 1.515625 
L 10.984375 10.5 
Q 14.703125 8.734375 18.5 7.8125 
Q 22.3125 6.890625 25.984375 6.890625 
Q 35.75 6.890625 40.890625 13.453125 
Q 46.046875 20.015625 46.78125 33.40625 
Q 43.953125 29.203125 39.59375 26.953125 
Q 35.25 24.703125 29.984375 24.703125 
Q 19.046875 24.703125 12.671875 31.3125 
Q 6.296875 37.9375 6.296875 49.421875 
Q 6.296875 60.640625 12.9375 67.421875 
Q 19.578125 74.21875 30.609375 74.21875 
Q 43.265625 74.21875 49.921875 64.515625 
Q 56.59375 54.828125 56.59375 36.375 
Q 56.59375 19.140625 48.40625 8.859375 
Q 40.234375 -1.421875 26.421875 -1.421875 
Q 22.703125 -1.421875 18.890625 -0.6875 
Q 15.09375 0.046875 10.984375 1.515625 
z
M 30.609375 32.421875 
Q 37.25 32.421875 41.125 36.953125 
Q 45.015625 41.5 45.015625 49.421875 
Q 45.015625 57.28125 41.125 61.84375 
Q 37.25 66.40625 30.609375 66.40625 
Q 23.96875 66.40625 20.09375 61.84375 
Q 16.21875 57.28125 16.21875 49.421875 
Q 16.21875 41.5 20.09375 36.953125 
Q 23.96875 32.421875 30.609375 32.421875 
z
" id="DejaVuSans-39"/>
      </defs>
      <g transform="translate(25.15 223.753602)scale(0.1 -0.1)">
       <use xlink:href="#DejaVuSans-39"/>
       <use x="63.623047" xlink:href="#DejaVuSans-30"/>
       <use x="127.246094" xlink:href="#DejaVuSans-30"/>
       <use x="190.869141" xlink:href="#DejaVuSans-30"/>
      </g>
     </g>
    </g>
    <g id="ytick_4">
     <g id="line2d_10">
      <g>
       <use style="stroke:#000000;stroke-width:0.8;" x="57.6" xlink:href="#me0e14c3a58" y="178.72452"/>
      </g>
     </g>
     <g id="text_11">
      <!-- 9500 -->
      <g transform="translate(25.15 182.523739)scale(0.1 -0.1)">
       <use xlink:href="#DejaVuSans-39"/>
       <use x="63.623047" xlink:href="#DejaVuSans-35"/>
       <use x="127.246094" xlink:href="#DejaVuSans-30"/>
       <use x="190.869141" xlink:href="#DejaVuSans-30"/>
      </g>
     </g>
    </g>
    <g id="ytick_5">
     <g id="line2d_11">
      <g>
       <use style="stroke:#000000;stroke-width:0.8;" x="57.6" xlink:href="#me0e14c3a58" y="137.494656"/>
      </g>
     </g>
     <g id="text_12">
      <!-- 10000 -->
      <g transform="translate(18.7875 141.293875)scale(0.1 -0.1)">
       <use xlink:href="#DejaVuSans-31"/>
       <use x="63.623047" xlink:href="#DejaVuSans-30"/>
       <use x="127.246094" xlink:href="#DejaVuSans-30"/>
       <use x="190.869141" xlink:href="#DejaVuSans-30"/>
       <use x="254.492188" xlink:href="#DejaVuSans-30"/>
      </g>
     </g>
    </g>
    <g id="ytick_6">
     <g id="line2d_12">
      <g>
       <use style="stroke:#000000;stroke-width:0.8;" x="57.6" xlink:href="#me0e14c3a58" y="96.264793"/>
      </g>
     </g>
     <g id="text_13">
      <!-- 10500 -->
      <g transform="translate(18.7875 100.064011)scale(0.1 -0.1)">
       <use xlink:href="#DejaVuSans-31"/>
       <use x="63.623047" xlink:href="#DejaVuSans-30"/>
       <use x="127.246094" xlink:href="#DejaVuSans-35"/>
       <use x="190.869141" xlink:href="#DejaVuSans-30"/>
       <use x="254.492188" xlink:href="#DejaVuSans-30"/>
      </g>
     </g>
    </g>
    <g id="ytick_7">
     <g id="line2d_13">
      <g>
       <use style="stroke:#000000;stroke-width:0.8;" x="57.6" xlink:href="#me0e14c3a58" y="55.034929"/>
      </g>
     </g>
     <g id="text_14">
      <!-- 11000 -->
      <g transform="translate(18.7875 58.834148)scale(0.1 -0.1)">
       <use xlink:href="#DejaVuSans-31"/>
       <use x="63.623047" xlink:href="#DejaVuSans-31"/>
       <use x="127.246094" xlink:href="#DejaVuSans-30"/>
       <use x="190.869141" xlink:href="#DejaVuSans-30"/>
       <use x="254.492188" xlink:href="#DejaVuSans-30"/>
      </g>
     </g>
    </g>
    <g id="text_15">
     <!-- Best Firefly Luminosity -->
     <defs>
      <path d="M 19.671875 34.8125 
L 19.671875 8.109375 
L 35.5 8.109375 
Q 43.453125 8.109375 47.28125 11.40625 
Q 51.125 14.703125 51.125 21.484375 
Q 51.125 28.328125 47.28125 31.5625 
Q 43.453125 34.8125 35.5 34.8125 
z
M 19.671875 64.796875 
L 19.671875 42.828125 
L 34.28125 42.828125 
Q 41.5 42.828125 45.03125 45.53125 
Q 48.578125 48.25 48.578125 53.8125 
Q 48.578125 59.328125 45.03125 62.0625 
Q 41.5 64.796875 34.28125 64.796875 
z
M 9.8125 72.90625 
L 35.015625 72.90625 
Q 46.296875 72.90625 52.390625 68.21875 
Q 58.5 63.53125 58.5 54.890625 
Q 58.5 48.1875 55.375 44.234375 
Q 52.25 40.28125 46.1875 39.3125 
Q 53.46875 37.75 57.5 32.78125 
Q 61.53125 27.828125 61.53125 20.40625 
Q 61.53125 10.640625 54.890625 5.3125 
Q 48.25 0 35.984375 0 
L 9.8125 0 
z
" id="DejaVuSans-42"/>
      <path d="M 44.28125 53.078125 
L 44.28125 44.578125 
Q 40.484375 46.53125 36.375 47.5 
Q 32.28125 48.484375 27.875 48.484375 
Q 21.1875 48.484375 17.84375 46.4375 
Q 14.5 44.390625 14.5 40.28125 
Q 14.5 37.15625 16.890625 35.375 
Q 19.28125 33.59375 26.515625 31.984375 
L 29.59375 31.296875 
Q 39.15625 29.25 43.1875 25.515625 
Q 47.21875 21.78125 47.21875 15.09375 
Q 47.21875 7.46875 41.1875 3.015625 
Q 35.15625 -1.421875 24.609375 -1.421875 
Q 20.21875 -1.421875 15.453125 -0.5625 
Q 10.6875 0.296875 5.421875 2 
L 5.421875 11.28125 
Q 10.40625 8.6875 15.234375 7.390625 
Q 20.0625 6.109375 24.8125 6.109375 
Q 31.15625 6.109375 34.5625 8.28125 
Q 37.984375 10.453125 37.984375 14.40625 
Q 37.984375 18.0625 35.515625 20.015625 
Q 33.0625 21.96875 24.703125 23.78125 
L 21.578125 24.515625 
Q 13.234375 26.265625 9.515625 29.90625 
Q 5.8125 33.546875 5.8125 39.890625 
Q 5.8125 47.609375 11.28125 51.796875 
Q 16.75 56 26.8125 56 
Q 31.78125 56 36.171875 55.265625 
Q 40.578125 54.546875 44.28125 53.078125 
z
" id="DejaVuSans-73"/>
      <path id="DejaVuSans-20"/>
      <path d="M 9.8125 72.90625 
L 51.703125 72.90625 
L 51.703125 64.59375 
L 19.671875 64.59375 
L 19.671875 43.109375 
L 48.578125 43.109375 
L 48.578125 34.8125 
L 19.671875 34.8125 
L 19.671875 0 
L 9.8125 0 
z
" id="DejaVuSans-46"/>
      <path d="M 37.109375 75.984375 
L 37.109375 68.5 
L 28.515625 68.5 
Q 23.6875 68.5 21.796875 66.546875 
Q 19.921875 64.59375 19.921875 59.515625 
L 19.921875 54.6875 
L 34.71875 54.6875 
L 34.71875 47.703125 
L 19.921875 47.703125 
L 19.921875 0 
L 10.890625 0 
L 10.890625 47.703125 
L 2.296875 47.703125 
L 2.296875 54.6875 
L 10.890625 54.6875 
L 10.890625 58.5 
Q 10.890625 67.625 15.140625 71.796875 
Q 19.390625 75.984375 28.609375 75.984375 
z
" id="DejaVuSans-66"/>
      <path d="M 9.421875 75.984375 
L 18.40625 75.984375 
L 18.40625 0 
L 9.421875 0 
z
" id="DejaVuSans-6c"/>
      <path d="M 32.171875 -5.078125 
Q 28.375 -14.84375 24.75 -17.8125 
Q 21.140625 -20.796875 15.09375 -20.796875 
L 7.90625 -20.796875 
L 7.90625 -13.28125 
L 13.1875 -13.28125 
Q 16.890625 -13.28125 18.9375 -11.515625 
Q 21 -9.765625 23.484375 -3.21875 
L 25.09375 0.875 
L 2.984375 54.6875 
L 12.5 54.6875 
L 29.59375 11.921875 
L 46.6875 54.6875 
L 56.203125 54.6875 
z
" id="DejaVuSans-79"/>
      <path d="M 9.8125 72.90625 
L 19.671875 72.90625 
L 19.671875 8.296875 
L 55.171875 8.296875 
L 55.171875 0 
L 9.8125 0 
z
" id="DejaVuSans-4c"/>
      <path d="M 8.5 21.578125 
L 8.5 54.6875 
L 17.484375 54.6875 
L 17.484375 21.921875 
Q 17.484375 14.15625 20.5 10.265625 
Q 23.53125 6.390625 29.59375 6.390625 
Q 36.859375 6.390625 41.078125 11.03125 
Q 45.3125 15.671875 45.3125 23.6875 
L 45.3125 54.6875 
L 54.296875 54.6875 
L 54.296875 0 
L 45.3125 0 
L 45.3125 8.40625 
Q 42.046875 3.421875 37.71875 1 
Q 33.40625 -1.421875 27.6875 -1.421875 
Q 18.265625 -1.421875 13.375 4.4375 
Q 8.5 10.296875 8.5 21.578125 
z
M 31.109375 56 
z
" id="DejaVuSans-75"/>
      <path d="M 52 44.1875 
Q 55.375 50.25 60.0625 53.125 
Q 64.75 56 71.09375 56 
Q 79.640625 56 84.28125 50.015625 
Q 88.921875 44.046875 88.921875 33.015625 
L 88.921875 0 
L 79.890625 0 
L 79.890625 32.71875 
Q 79.890625 40.578125 77.09375 44.375 
Q 74.3125 48.1875 68.609375 48.1875 
Q 61.625 48.1875 57.5625 43.546875 
Q 53.515625 38.921875 53.515625 30.90625 
L 53.515625 0 
L 44.484375 0 
L 44.484375 32.71875 
Q 44.484375 40.625 41.703125 44.40625 
Q 38.921875 48.1875 33.109375 48.1875 
Q 26.21875 48.1875 22.15625 43.53125 
Q 18.109375 38.875 18.109375 30.90625 
L 18.109375 0 
L 9.078125 0 
L 9.078125 54.6875 
L 18.109375 54.6875 
L 18.109375 46.1875 
Q 21.1875 51.21875 25.484375 53.609375 
Q 29.78125 56 35.6875 56 
Q 41.65625 56 45.828125 52.96875 
Q 50 49.953125 52 44.1875 
z
" id="DejaVuSans-6d"/>
     </defs>
     <g transform="translate(12.707812 231.631125)rotate(-90)scale(0.1 -0.1)">
      <use xlink:href="#DejaVuSans-42"/>
      <use x="68.603516" xlink:href="#DejaVuSans-65"/>
      <use x="130.126953" xlink:href="#DejaVuSans-73"/>
      <use x="182.226562" xlink:href="#DejaVuSans-74"/>
      <use x="221.435547" xlink:href="#DejaVuSans-20"/>
      <use x="253.222656" xlink:href="#DejaVuSans-46"/>
      <use x="310.632812" xlink:href="#DejaVuSans-69"/>
      <use x="338.416016" xlink:href="#DejaVuSans-72"/>
      <use x="379.498047" xlink:href="#DejaVuSans-65"/>
      <use x="441.021484" xlink:href="#DejaVuSans-66"/>
      <use x="476.226562" xlink:href="#DejaVuSans-6c"/>
      <use x="504.009766" xlink:href="#DejaVuSans-79"/>
      <use x="563.189453" xlink:href="#DejaVuSans-20"/>
      <use x="594.976562" xlink:href="#DejaVuSans-4c"/>
      <use x="650.673828" xlink:href="#DejaVuSans-75"/>
      <use x="714.052734" xlink:href="#DejaVuSans-6d"/>
      <use x="811.464844" xlink:href="#DejaVuSans-69"/>
      <use x="839.248047" xlink:href="#DejaVuSans-6e"/>
      <use x="902.626953" xlink:href="#DejaVuSans-6f"/>
      <use x="963.808594" xlink:href="#DejaVuSans-73"/>
      <use x="1015.908203" xlink:href="#DejaVuSans-69"/>
      <use x="1043.691406" xlink:href="#DejaVuSans-74"/>
      <use x="1082.900391" xlink:href="#DejaVuSans-79"/>
     </g>
    </g>
   </g>
   <g id="line2d_14">
    <path clip-path="url(#p7ee65cc9fe)" d="M 73.832727 53.568 
L 74.157707 65.609501 
L 74.482686 67.880835 
L 74.807666 68.121339 
L 75.132645 68.652592 
L 75.457625 70.092444 
L 75.782604 70.221795 
L 76.107584 70.221795 
L 76.432563 70.472377 
L 76.757543 72.816109 
L 77.082523 72.816109 
L 77.407502 73.873147 
L 77.732482 73.873147 
L 78.057461 74.210637 
L 78.70742 74.210637 
L 79.0324 76.056864 
L 79.682359 76.056864 
L 80.007338 77.582974 
L 81.307256 77.636504 
L 81.632236 79.909344 
L 82.282195 80.205801 
L 82.607174 80.205801 
L 82.932154 81.114152 
L 83.582113 81.114152 
L 83.907093 83.257969 
L 84.882031 83.257969 
L 85.207011 83.977606 
L 87.156888 83.977606 
L 87.481867 85.116323 
L 89.106765 85.116323 
L 89.431744 85.387529 
L 89.756724 87.011032 
L 92.35656 87.054888 
L 92.68154 87.24351 
L 93.656478 87.24351 
L 93.981458 88.645687 
L 95.931335 88.645687 
L 96.256314 89.190077 
L 96.581294 89.190077 
L 96.906274 90.18224 
L 97.231253 90.456595 
L 97.556233 92.762777 
L 97.881212 93.024146 
L 100.156069 93.024146 
L 100.481048 94.561206 
L 102.105946 94.561206 
L 102.430925 96.197217 
L 103.080885 96.197217 
L 103.405864 97.282639 
L 118.029943 97.282639 
L 118.354922 99.346339 
L 118.679902 99.346339 
L 119.004881 100.315616 
L 120.304799 100.315616 
L 120.629779 100.864297 
L 123.229615 100.864297 
L 123.554595 101.332817 
L 123.879574 101.332817 
L 124.204554 102.482935 
L 130.054185 102.482935 
L 130.379165 105.096839 
L 133.62896 105.096839 
L 133.953939 105.788398 
L 134.278919 106.057042 
L 134.603898 108.915155 
L 137.528714 108.915155 
L 137.853694 110.147941 
L 139.478591 110.147941 
L 139.803571 110.933302 
L 140.12855 110.933302 
L 140.45353 112.505306 
L 140.778509 112.505306 
L 141.103489 113.096841 
L 141.753448 113.096841 
L 142.078428 113.27668 
L 143.053366 113.27668 
L 143.703325 113.443363 
L 144.353284 113.443363 
L 144.678264 113.756158 
L 147.603079 113.756158 
L 147.928059 116.151637 
L 148.253038 116.151637 
L 148.578018 116.908383 
L 149.552957 116.908383 
L 149.877936 117.716614 
L 150.202916 119.024091 
L 151.827813 119.024091 
L 152.152793 124.049659 
L 152.477772 124.049659 
L 152.802752 124.495672 
L 154.10267 124.495672 
L 154.427649 128.323477 
L 158.002424 128.350166 
L 158.652383 128.45191 
L 158.977363 129.555448 
L 159.302342 129.717723 
L 161.252219 129.717723 
L 161.577199 133.90956 
L 161.902179 133.90956 
L 162.227158 134.527329 
L 163.852056 134.527329 
L 164.177035 134.689736 
L 164.502015 134.689736 
L 164.826994 137.204438 
L 165.151974 137.378033 
L 165.476953 138.37685 
L 166.451892 138.37685 
L 166.776871 140.350045 
L 167.101851 140.350045 
L 167.42683 140.637284 
L 167.75181 140.637284 
L 168.07679 142.212501 
L 168.401769 142.599231 
L 168.726749 143.912667 
L 169.051728 143.912667 
L 169.376708 144.437156 
L 169.701687 144.689273 
L 170.026667 147.490052 
L 171.001605 147.490052 
L 171.326585 150.139446 
L 171.651564 150.153512 
L 171.976544 151.698646 
L 172.301523 152.002431 
L 172.951482 152.039536 
L 173.601441 155.009567 
L 174.57638 155.009567 
L 174.90136 155.314263 
L 177.176216 155.314263 
L 177.826175 156.173207 
L 178.151155 156.173207 
L 178.476134 157.10841 
L 178.801114 157.286744 
L 180.101032 157.287956 
L 180.426011 159.605512 
L 181.40095 159.605512 
L 181.72593 159.938599 
L 182.050909 160.631933 
L 182.375889 160.846347 
L 183.025848 160.846347 
L 183.350827 161.029977 
L 183.675807 161.567112 
L 184.650745 161.567112 
L 185.300704 161.852207 
L 185.625684 162.21894 
L 185.950663 163.567477 
L 186.275643 167.271971 
L 186.600622 167.271971 
L 186.925602 168.190734 
L 187.250581 168.190734 
L 187.575561 170.216092 
L 188.5505 170.216092 
L 188.875479 170.43562 
L 189.200459 170.43562 
L 189.525438 171.376462 
L 190.175397 171.376462 
L 190.500377 172.993303 
L 190.825356 173.395429 
L 192.450254 173.420998 
L 192.775233 174.212686 
L 193.750172 174.222515 
L 194.075152 175.142307 
L 194.400131 175.142307 
L 194.725111 177.169011 
L 195.05009 177.500491 
L 196.025029 177.500491 
L 196.350008 179.068654 
L 197.324947 179.068654 
L 197.649926 183.032701 
L 197.974906 183.35958 
L 198.624865 183.35958 
L 198.949844 186.382824 
L 199.599803 187.36208 
L 199.924783 188.407149 
L 200.574742 188.407149 
L 201.224701 189.765021 
L 202.19964 189.765021 
L 202.524619 190.112815 
L 202.849599 190.112815 
L 203.174578 193.100985 
L 205.449435 193.164892 
L 205.774414 193.427356 
L 208.69923 193.427356 
L 209.02421 193.909212 
L 210.324128 193.909212 
L 210.649107 194.368199 
L 210.974087 194.368199 
L 211.299066 194.722402 
L 212.923964 194.722402 
L 213.248943 195.579584 
L 214.223882 195.579584 
L 214.548862 196.102677 
L 214.873841 197.832616 
L 215.198821 197.832616 
L 215.5238 198.297717 
L 215.84878 198.297717 
L 216.173759 200.380581 
L 216.498739 200.380581 
L 216.823718 200.544472 
L 217.798657 200.544472 
L 218.123636 201.154725 
L 218.773595 201.154725 
L 219.098575 201.291091 
L 219.423554 201.291091 
L 219.748534 201.702477 
L 221.048452 201.702477 
L 221.373432 204.609976 
L 221.698411 205.341405 
L 222.34837 205.854443 
L 222.67335 205.854443 
L 223.323309 206.603032 
L 223.648288 207.493643 
L 223.973268 209.048616 
L 224.298247 209.048616 
L 224.623227 209.858423 
L 224.948206 209.858423 
L 225.273186 210.641343 
L 227.873022 210.668788 
L 228.198002 212.171827 
L 229.17294 212.171827 
L 229.822899 213.093897 
L 230.147879 215.020026 
L 231.122817 215.032147 
L 231.447797 215.732757 
L 232.097756 215.732757 
L 232.422735 216.569297 
L 233.072695 216.569297 
L 233.397674 216.73194 
L 233.722654 217.066658 
L 234.047633 219.167207 
L 234.372613 220.396469 
L 234.697592 220.396469 
L 235.022572 221.220062 
L 235.672531 221.220062 
L 235.99751 223.988407 
L 236.647469 223.988407 
L 236.972449 225.315935 
L 237.297428 227.206582 
L 238.272367 227.21497 
L 238.597346 229.481567 
L 238.922326 229.481567 
L 239.572285 230.834148 
L 239.897265 231.03464 
L 240.547224 231.780302 
L 241.847142 231.797967 
L 242.172121 232.032273 
L 242.497101 234.731676 
L 242.82208 234.733754 
L 243.14706 236.70497 
L 244.121998 236.70497 
L 244.446978 237.642663 
L 245.096937 237.642663 
L 245.421916 238.015572 
L 246.071876 238.057608 
L 246.396855 238.403452 
L 247.046814 238.482762 
L 247.371794 239.536932 
L 247.696773 239.544146 
L 248.021753 239.677259 
L 248.346732 240.013911 
L 248.671712 240.013911 
L 248.996691 240.880881 
L 249.321671 241.150117 
L 250.621589 241.204128 
L 250.946568 241.811409 
L 251.271548 242.091505 
L 251.921507 246.28768 
L 252.246486 246.28768 
L 252.571466 247.010301 
L 253.221425 247.010301 
L 253.546405 248.906937 
L 254.196364 250.029998 
L 254.521343 251.873642 
L 254.846323 252.427266 
L 255.171302 252.441619 
L 255.496282 252.673993 
L 255.821261 253.412087 
L 256.146241 253.651194 
L 256.47122 255.082062 
L 256.7962 255.308845 
L 257.121179 257.489593 
L 257.446159 258.65325 
L 257.771138 258.683966 
L 258.096118 259.13193 
L 258.421097 259.13193 
L 258.746077 261.588473 
L 259.071057 261.588473 
L 259.721016 262.226393 
L 260.045995 262.296485 
L 260.370975 262.697823 
L 260.695954 263.418226 
L 261.020934 263.579111 
L 261.345913 266.424398 
L 261.995872 267.372064 
L 262.320852 270.488647 
L 262.970811 272.065825 
L 263.29579 272.065825 
L 263.62077 272.541481 
L 263.945749 275.339832 
L 264.270729 275.975104 
L 264.920688 277.819297 
L 265.245667 278.367701 
L 265.570647 279.481403 
L 265.895627 279.783542 
L 267.845504 279.903743 
L 268.170483 280.870063 
L 268.495463 280.870063 
L 268.820442 282.761644 
L 269.145422 282.81443 
L 269.795381 283.497206 
L 270.12036 284.120219 
L 270.44534 284.305753 
L 270.770319 284.773242 
L 271.095299 284.86246 
L 271.420278 285.077358 
L 272.070238 285.092126 
L 272.395217 285.452331 
L 273.045176 285.587003 
L 273.370156 285.587003 
L 273.695135 285.831876 
L 274.020115 285.847489 
L 274.345094 286.254332 
L 274.995053 286.3872 
L 275.320033 287.193804 
L 275.645012 287.448942 
L 275.969992 287.876284 
L 276.294971 287.905599 
L 276.619951 288.563161 
L 277.594889 288.563161 
L 277.919869 288.729325 
L 278.244848 289.447043 
L 280.844685 289.462674 
L 286.044357 289.523201 
L 287.344275 289.741362 
L 398.487273 289.768361 
L 398.487273 289.768361 
" style="fill:none;stroke:#1f77b4;stroke-linecap:square;stroke-width:1.5;"/>
   </g>
   <g id="line2d_15">
    <path clip-path="url(#p7ee65cc9fe)" d="M 73.832727 57.27952 
L 74.157707 61.502444 
L 74.482686 63.005171 
L 74.807666 65.582138 
L 75.132645 73.679249 
L 76.107584 73.679249 
L 76.432563 76.280306 
L 76.757543 76.523346 
L 77.082523 76.523346 
L 77.407502 77.227281 
L 77.732482 77.227281 
L 78.057461 78.066895 
L 79.357379 78.066895 
L 79.682359 78.833565 
L 80.657297 78.833565 
L 80.982277 79.598101 
L 81.632236 79.598101 
L 81.957215 80.901293 
L 82.282195 81.384578 
L 82.607174 82.365675 
L 83.907093 82.365675 
L 84.232072 83.613173 
L 85.207011 83.613173 
L 85.53199 84.43417 
L 85.85697 85.965937 
L 86.181949 86.217945 
L 87.806847 86.217945 
L 88.131826 87.264488 
L 88.781785 87.264488 
L 89.106765 88.32286 
L 90.406683 88.32286 
L 90.731663 88.506618 
L 91.381622 88.506618 
L 91.706601 89.115252 
L 95.606355 89.115252 
L 95.931335 92.726916 
L 98.531171 92.726916 
L 98.856151 94.396002 
L 101.455987 94.454409 
L 101.780966 96.409667 
L 108.280557 96.409667 
L 108.605536 97.289013 
L 109.580475 97.289013 
L 109.905455 97.520383 
L 110.230434 97.520383 
L 110.555414 99.23351 
L 111.530352 99.23351 
L 111.855332 99.81723 
L 114.130188 99.81723 
L 114.455168 100.442474 
L 119.97982 100.442474 
L 120.304799 100.991228 
L 122.254676 100.991228 
L 122.579656 101.159387 
L 129.404226 101.159387 
L 129.729206 101.63668 
L 131.354103 101.659635 
L 131.679083 101.976375 
L 134.603898 101.976375 
L 134.928878 102.369862 
L 135.253857 105.534242 
L 135.578837 105.534242 
L 135.903817 106.845234 
L 136.228796 106.845234 
L 136.553776 107.289892 
L 138.828632 107.289892 
L 139.153612 107.927109 
L 139.803571 107.927109 
L 140.12855 109.444994 
L 140.45353 109.444994 
L 140.778509 110.367495 
L 141.753448 110.367495 
L 142.078428 112.058033 
L 142.728387 112.167911 
L 144.353284 112.18269 
L 144.678264 112.57038 
L 145.003243 112.615112 
L 145.328223 113.598203 
L 146.303161 113.598203 
L 146.628141 115.435949 
L 148.902998 115.435949 
L 149.227977 115.559214 
L 151.177854 115.559214 
L 151.502834 115.732643 
L 151.827813 117.448735 
L 152.477772 117.448735 
L 152.802752 117.910482 
L 153.452711 117.910482 
L 153.77769 121.758337 
L 154.10267 122.419963 
L 156.377527 122.419963 
L 156.702506 124.792121 
L 157.352465 124.792121 
L 157.677445 124.977789 
L 158.002424 125.89514 
L 158.327404 125.89514 
L 158.652383 126.859598 
L 163.202097 126.859598 
L 163.527076 128.184847 
L 164.177035 128.184847 
L 164.502015 130.511175 
L 167.101851 130.511175 
L 167.42683 131.80908 
L 167.75181 132.392348 
L 169.376708 132.392348 
L 169.701687 132.62636 
L 170.026667 133.443994 
L 170.351646 135.100156 
L 171.326585 135.100156 
L 171.651564 136.117926 
L 171.976544 136.117926 
L 172.301523 136.28605 
L 172.626503 136.708655 
L 175.551319 136.708655 
L 175.876298 139.361818 
L 181.72593 139.361818 
L 182.050909 145.180399 
L 182.700868 145.205743 
L 183.025848 146.065095 
L 183.675807 148.345358 
L 184.000786 148.345358 
L 184.650745 148.743024 
L 185.950663 148.743024 
L 186.275643 148.905695 
L 186.600622 148.905695 
L 186.925602 150.962061 
L 187.250581 150.962061 
L 187.575561 151.611601 
L 187.900541 151.783997 
L 188.875479 151.832982 
L 189.525438 151.832982 
L 189.850418 155.321048 
L 190.175397 157.219193 
L 190.500377 159.861734 
L 190.825356 159.861734 
L 191.150336 160.922223 
L 191.475315 162.438277 
L 193.750172 162.438277 
L 194.075152 162.606835 
L 194.725111 162.606835 
L 195.05009 162.730464 
L 195.700049 164.752156 
L 196.025029 164.752156 
L 196.350008 167.062584 
L 196.674988 167.062584 
L 197.324947 167.74366 
L 199.599803 167.74366 
L 199.924783 169.95674 
L 200.249762 169.95674 
L 200.574742 171.693552 
L 200.899722 171.693552 
L 201.549681 172.00525 
L 202.849599 172.00525 
L 203.174578 172.680726 
L 203.824537 172.680726 
L 204.149517 173.425987 
L 204.474496 174.694035 
L 206.099394 174.694035 
L 206.424373 175.990219 
L 207.074333 176.069591 
L 207.399312 176.897358 
L 208.374251 176.897358 
L 208.69923 177.213525 
L 209.349189 177.213525 
L 209.674169 179.433206 
L 210.649107 179.433206 
L 210.974087 181.012844 
L 211.299066 183.952775 
L 211.624046 185.711778 
L 211.949025 186.699675 
L 212.923964 186.740127 
L 215.5238 186.740127 
L 215.84878 187.37975 
L 216.173759 187.524909 
L 216.498739 188.855524 
L 217.148698 188.855524 
L 217.473677 191.386971 
L 218.448616 191.386971 
L 218.773595 191.544008 
L 219.748534 191.544008 
L 220.073514 192.783512 
L 220.398493 193.132367 
L 220.723473 194.505986 
L 221.373432 195.833084 
L 222.023391 195.833084 
L 222.34837 196.78723 
L 222.67335 197.173593 
L 222.998329 198.39306 
L 223.323309 202.477245 
L 223.648288 202.869816 
L 224.623227 202.869816 
L 224.948206 203.446184 
L 225.598165 203.660723 
L 225.923145 203.867856 
L 226.248124 203.867856 
L 226.573104 204.399199 
L 227.223063 204.422491 
L 227.548043 204.563226 
L 227.873022 205.521288 
L 228.847961 205.625419 
L 229.17294 207.693312 
L 229.49792 207.693312 
L 230.147879 210.185348 
L 230.472858 211.1149 
L 230.797838 212.466095 
L 231.122817 212.888941 
L 231.772776 212.888941 
L 232.747715 217.069691 
L 233.397674 217.069691 
L 233.722654 217.514969 
L 234.047633 217.514969 
L 234.372613 218.501655 
L 234.697592 218.631166 
L 235.672531 218.631166 
L 235.99751 219.645959 
L 237.297428 219.645959 
L 237.622408 220.569129 
L 238.272367 220.569129 
L 238.597346 221.587233 
L 238.922326 222.158462 
L 239.572285 224.661785 
L 239.897265 224.661785 
L 240.222244 225.044028 
L 240.547224 228.882789 
L 241.197183 229.341615 
L 241.522162 229.341615 
L 241.847142 230.517528 
L 242.172121 230.517528 
L 242.497101 231.33625 
L 242.82208 234.677086 
L 243.14706 236.442278 
L 243.797019 236.44872 
L 244.121998 236.637103 
L 244.771957 236.637103 
L 245.096937 237.917287 
L 245.421916 243.348324 
L 246.071876 243.348324 
L 246.396855 244.127758 
L 246.721835 244.127758 
L 247.046814 245.304749 
L 247.696773 246.168429 
L 248.021753 247.945475 
L 248.346732 247.945475 
L 248.671712 248.333513 
L 248.996691 248.333513 
L 249.321671 249.08004 
L 249.64665 249.303252 
L 250.296609 250.189684 
L 250.621589 250.957013 
L 250.946568 251.107969 
L 251.271548 252.388549 
L 251.921507 252.388549 
L 252.571466 253.55983 
L 252.896446 254.898515 
L 253.221425 255.733087 
L 253.871384 258.199016 
L 254.196364 260.59919 
L 254.521343 260.59919 
L 255.171302 261.881774 
L 255.496282 261.881774 
L 255.821261 263.41794 
L 256.146241 264.340047 
L 256.47122 264.340047 
L 256.7962 264.598595 
L 257.121179 265.213049 
L 257.446159 265.562453 
L 258.096118 265.701558 
L 258.421097 266.093044 
L 258.746077 266.227953 
L 259.396036 269.697344 
L 260.045995 269.704905 
L 260.370975 270.173315 
L 260.695954 270.241302 
L 261.020934 272.068349 
L 261.345913 273.220715 
L 261.670893 273.68376 
L 261.995872 274.906893 
L 262.645831 275.460258 
L 264.595708 280.631984 
L 264.920688 282.418997 
L 265.570647 282.513138 
L 266.545586 285.263483 
L 266.870565 285.856797 
L 267.195545 286.712014 
L 269.470401 290.066202 
L 269.795381 291.104399 
L 270.12036 291.495643 
L 270.44534 292.07311 
L 271.420278 292.217266 
L 271.745258 292.550358 
L 274.345094 292.603651 
L 274.670074 293.518756 
L 275.645012 293.673543 
L 275.969992 293.908826 
L 276.94493 293.994376 
L 277.594889 294.122822 
L 277.919869 295.359087 
L 281.819623 295.369015 
L 288.969173 295.437391 
L 289.944111 295.488 
L 398.487273 295.488 
L 398.487273 295.488 
" style="fill:none;stroke:#ff7f0e;stroke-linecap:square;stroke-width:1.5;"/>
   </g>
   <g id="patch_3">
    <path d="M 57.6 307.584 
L 57.6 41.472 
" style="fill:none;stroke:#000000;stroke-linecap:square;stroke-linejoin:miter;stroke-width:0.8;"/>
   </g>
   <g id="patch_4">
    <path d="M 414.72 307.584 
L 414.72 41.472 
" style="fill:none;stroke:#000000;stroke-linecap:square;stroke-linejoin:miter;stroke-width:0.8;"/>
   </g>
   <g id="patch_5">
    <path d="M 57.6 307.584 
L 414.72 307.584 
" style="fill:none;stroke:#000000;stroke-linecap:square;stroke-linejoin:miter;stroke-width:0.8;"/>
   </g>
   <g id="patch_6">
    <path d="M 57.6 41.472 
L 414.72 41.472 
" style="fill:none;stroke:#000000;stroke-linecap:square;stroke-linejoin:miter;stroke-width:0.8;"/>
   </g>
   <g id="legend_1">
    <g id="patch_7">
     <path d="M 322.4825 79.106375 
L 407.72 79.106375 
Q 409.72 79.106375 409.72 77.106375 
L 409.72 48.472 
Q 409.72 46.472 407.72 46.472 
L 322.4825 46.472 
Q 320.4825 46.472 320.4825 48.472 
L 320.4825 77.106375 
Q 320.4825 79.106375 322.4825 79.106375 
z
" style="fill:#ffffff;opacity:0.8;stroke:#cccccc;stroke-linejoin:miter;"/>
    </g>
    <g id="line2d_16">
     <path d="M 324.4825 54.570438 
L 344.4825 54.570438 
" style="fill:none;stroke:#1f77b4;stroke-linecap:square;stroke-width:1.5;"/>
    </g>
    <g id="line2d_17"/>
    <g id="text_16">
     <!-- not_sorted -->
     <defs>
      <path d="M 50.984375 -16.609375 
L 50.984375 -23.578125 
L -0.984375 -23.578125 
L -0.984375 -16.609375 
z
" id="DejaVuSans-5f"/>
      <path d="M 45.40625 46.390625 
L 45.40625 75.984375 
L 54.390625 75.984375 
L 54.390625 0 
L 45.40625 0 
L 45.40625 8.203125 
Q 42.578125 3.328125 38.25 0.953125 
Q 33.9375 -1.421875 27.875 -1.421875 
Q 17.96875 -1.421875 11.734375 6.484375 
Q 5.515625 14.40625 5.515625 27.296875 
Q 5.515625 40.1875 11.734375 48.09375 
Q 17.96875 56 27.875 56 
Q 33.9375 56 38.25 53.625 
Q 42.578125 51.265625 45.40625 46.390625 
z
M 14.796875 27.296875 
Q 14.796875 17.390625 18.875 11.75 
Q 22.953125 6.109375 30.078125 6.109375 
Q 37.203125 6.109375 41.296875 11.75 
Q 45.40625 17.390625 45.40625 27.296875 
Q 45.40625 37.203125 41.296875 42.84375 
Q 37.203125 48.484375 30.078125 48.484375 
Q 22.953125 48.484375 18.875 42.84375 
Q 14.796875 37.203125 14.796875 27.296875 
z
" id="DejaVuSans-64"/>
     </defs>
     <g transform="translate(352.4825 58.070438)scale(0.1 -0.1)">
      <use xlink:href="#DejaVuSans-6e"/>
      <use x="63.378906" xlink:href="#DejaVuSans-6f"/>
      <use x="124.560547" xlink:href="#DejaVuSans-74"/>
      <use x="163.769531" xlink:href="#DejaVuSans-5f"/>
      <use x="213.769531" xlink:href="#DejaVuSans-73"/>
      <use x="265.869141" xlink:href="#DejaVuSans-6f"/>
      <use x="327.050781" xlink:href="#DejaVuSans-72"/>
      <use x="368.164062" xlink:href="#DejaVuSans-74"/>
      <use x="407.373047" xlink:href="#DejaVuSans-65"/>
      <use x="468.896484" xlink:href="#DejaVuSans-64"/>
     </g>
    </g>
    <g id="line2d_18">
     <path d="M 324.4825 69.526688 
L 344.4825 69.526688 
" style="fill:none;stroke:#ff7f0e;stroke-linecap:square;stroke-width:1.5;"/>
    </g>
    <g id="line2d_19"/>
    <g id="text_17">
     <!-- sorted -->
     <g transform="translate(352.4825 73.026688)scale(0.1 -0.1)">
      <use xlink:href="#DejaVuSans-73"/>
      <use x="52.099609" xlink:href="#DejaVuSans-6f"/>
      <use x="113.28125" xlink:href="#DejaVuSans-72"/>
      <use x="154.394531" xlink:href="#DejaVuSans-74"/>
      <use x="193.603516" xlink:href="#DejaVuSans-65"/>
      <use x="255.126953" xlink:href="#DejaVuSans-64"/>
     </g>
    </g>
   </g>
  </g>
 </g>
 <defs>
  <clipPath id="p7ee65cc9fe">
   <rect height="266.112" width="357.12" x="57.6" y="41.472"/>
  </clipPath>
 </defs>
</svg>
