<?xml version="1.0" encoding="utf-8" standalone="no"?>
<!DOCTYPE svg PUBLIC "-//W3C//DTD SVG 1.1//EN"
  "http://www.w3.org/Graphics/SVG/1.1/DTD/svg11.dtd">
<!-- Created with matplotlib (http://matplotlib.org/) -->
<svg height="345pt" version="1.1" viewBox="0 0 460 345" width="460pt" xmlns="http://www.w3.org/2000/svg" xmlns:xlink="http://www.w3.org/1999/xlink">
 <defs>
  <style type="text/css">
*{stroke-linecap:butt;stroke-linejoin:round;}
  </style>
 </defs>
 <g id="figure_1">
  <g id="patch_1">
   <path d="M 0 345.6 
L 460.8 345.6 
L 460.8 0 
L 0 0 
z
" style="fill:#ffffff;"/>
  </g>
  <g id="axes_1">
   <g id="patch_2">
    <path d="M 57.6 307.584 
L 414.72 307.584 
L 414.72 41.472 
L 57.6 41.472 
z
" style="fill:#ffffff;"/>
   </g>
   <g id="matplotlib.axis_1">
    <g id="xtick_1">
     <g id="line2d_1">
      <defs>
       <path d="M 0 0 
L 0 3.5 
" id="m0677724986" style="stroke:#000000;stroke-width:0.8;"/>
      </defs>
      <g>
       <use style="stroke:#000000;stroke-width:0.8;" x="73.832727" xlink:href="#m0677724986" y="307.584"/>
      </g>
     </g>
     <g id="text_1">
      <!-- 0 -->
      <defs>
       <path d="M 31.78125 66.40625 
Q 24.171875 66.40625 20.328125 58.90625 
Q 16.5 51.421875 16.5 36.375 
Q 16.5 21.390625 20.328125 13.890625 
Q 24.171875 6.390625 31.78125 6.390625 
Q 39.453125 6.390625 43.28125 13.890625 
Q 47.125 21.390625 47.125 36.375 
Q 47.125 51.421875 43.28125 58.90625 
Q 39.453125 66.40625 31.78125 66.40625 
z
M 31.78125 74.21875 
Q 44.046875 74.21875 50.515625 64.515625 
Q 56.984375 54.828125 56.984375 36.375 
Q 56.984375 17.96875 50.515625 8.265625 
Q 44.046875 -1.421875 31.78125 -1.421875 
Q 19.53125 -1.421875 13.0625 8.265625 
Q 6.59375 17.96875 6.59375 36.375 
Q 6.59375 54.828125 13.0625 64.515625 
Q 19.53125 74.21875 31.78125 74.21875 
z
" id="DejaVuSans-30"/>
      </defs>
      <g transform="translate(70.651477 322.182437)scale(0.1 -0.1)">
       <use xlink:href="#DejaVuSans-30"/>
      </g>
     </g>
    </g>
    <g id="xtick_2">
     <g id="line2d_2">
      <g>
       <use style="stroke:#000000;stroke-width:0.8;" x="138.828632" xlink:href="#m0677724986" y="307.584"/>
      </g>
     </g>
     <g id="text_2">
      <!-- 200 -->
      <defs>
       <path d="M 19.1875 8.296875 
L 53.609375 8.296875 
L 53.609375 0 
L 7.328125 0 
L 7.328125 8.296875 
Q 12.9375 14.109375 22.625 23.890625 
Q 32.328125 33.6875 34.8125 36.53125 
Q 39.546875 41.84375 41.421875 45.53125 
Q 43.3125 49.21875 43.3125 52.78125 
Q 43.3125 58.59375 39.234375 62.25 
Q 35.15625 65.921875 28.609375 65.921875 
Q 23.96875 65.921875 18.8125 64.3125 
Q 13.671875 62.703125 7.8125 59.421875 
L 7.8125 69.390625 
Q 13.765625 71.78125 18.9375 73 
Q 24.125 74.21875 28.421875 74.21875 
Q 39.75 74.21875 46.484375 68.546875 
Q 53.21875 62.890625 53.21875 53.421875 
Q 53.21875 48.921875 51.53125 44.890625 
Q 49.859375 40.875 45.40625 35.40625 
Q 44.1875 33.984375 37.640625 27.21875 
Q 31.109375 20.453125 19.1875 8.296875 
z
" id="DejaVuSans-32"/>
      </defs>
      <g transform="translate(129.284882 322.182437)scale(0.1 -0.1)">
       <use xlink:href="#DejaVuSans-32"/>
       <use x="63.623047" xlink:href="#DejaVuSans-30"/>
       <use x="127.246094" xlink:href="#DejaVuSans-30"/>
      </g>
     </g>
    </g>
    <g id="xtick_3">
     <g id="line2d_3">
      <g>
       <use style="stroke:#000000;stroke-width:0.8;" x="203.824537" xlink:href="#m0677724986" y="307.584"/>
      </g>
     </g>
     <g id="text_3">
      <!-- 400 -->
      <defs>
       <path d="M 37.796875 64.3125 
L 12.890625 25.390625 
L 37.796875 25.390625 
z
M 35.203125 72.90625 
L 47.609375 72.90625 
L 47.609375 25.390625 
L 58.015625 25.390625 
L 58.015625 17.1875 
L 47.609375 17.1875 
L 47.609375 0 
L 37.796875 0 
L 37.796875 17.1875 
L 4.890625 17.1875 
L 4.890625 26.703125 
z
" id="DejaVuSans-34"/>
      </defs>
      <g transform="translate(194.280787 322.182437)scale(0.1 -0.1)">
       <use xlink:href="#DejaVuSans-34"/>
       <use x="63.623047" xlink:href="#DejaVuSans-30"/>
       <use x="127.246094" xlink:href="#DejaVuSans-30"/>
      </g>
     </g>
    </g>
    <g id="xtick_4">
     <g id="line2d_4">
      <g>
       <use style="stroke:#000000;stroke-width:0.8;" x="268.820442" xlink:href="#m0677724986" y="307.584"/>
      </g>
     </g>
     <g id="text_4">
      <!-- 600 -->
      <defs>
       <path d="M 33.015625 40.375 
Q 26.375 40.375 22.484375 35.828125 
Q 18.609375 31.296875 18.609375 23.390625 
Q 18.609375 15.53125 22.484375 10.953125 
Q 26.375 6.390625 33.015625 6.390625 
Q 39.65625 6.390625 43.53125 10.953125 
Q 47.40625 15.53125 47.40625 23.390625 
Q 47.40625 31.296875 43.53125 35.828125 
Q 39.65625 40.375 33.015625 40.375 
z
M 52.59375 71.296875 
L 52.59375 62.3125 
Q 48.875 64.0625 45.09375 64.984375 
Q 41.3125 65.921875 37.59375 65.921875 
Q 27.828125 65.921875 22.671875 59.328125 
Q 17.53125 52.734375 16.796875 39.40625 
Q 19.671875 43.65625 24.015625 45.921875 
Q 28.375 48.1875 33.59375 48.1875 
Q 44.578125 48.1875 50.953125 41.515625 
Q 57.328125 34.859375 57.328125 23.390625 
Q 57.328125 12.15625 50.6875 5.359375 
Q 44.046875 -1.421875 33.015625 -1.421875 
Q 20.359375 -1.421875 13.671875 8.265625 
Q 6.984375 17.96875 6.984375 36.375 
Q 6.984375 53.65625 15.1875 63.9375 
Q 23.390625 74.21875 37.203125 74.21875 
Q 40.921875 74.21875 44.703125 73.484375 
Q 48.484375 72.75 52.59375 71.296875 
z
" id="DejaVuSans-36"/>
      </defs>
      <g transform="translate(259.276692 322.182437)scale(0.1 -0.1)">
       <use xlink:href="#DejaVuSans-36"/>
       <use x="63.623047" xlink:href="#DejaVuSans-30"/>
       <use x="127.246094" xlink:href="#DejaVuSans-30"/>
      </g>
     </g>
    </g>
    <g id="xtick_5">
     <g id="line2d_5">
      <g>
       <use style="stroke:#000000;stroke-width:0.8;" x="333.816347" xlink:href="#m0677724986" y="307.584"/>
      </g>
     </g>
     <g id="text_5">
      <!-- 800 -->
      <defs>
       <path d="M 31.78125 34.625 
Q 24.75 34.625 20.71875 30.859375 
Q 16.703125 27.09375 16.703125 20.515625 
Q 16.703125 13.921875 20.71875 10.15625 
Q 24.75 6.390625 31.78125 6.390625 
Q 38.8125 6.390625 42.859375 10.171875 
Q 46.921875 13.96875 46.921875 20.515625 
Q 46.921875 27.09375 42.890625 30.859375 
Q 38.875 34.625 31.78125 34.625 
z
M 21.921875 38.8125 
Q 15.578125 40.375 12.03125 44.71875 
Q 8.5 49.078125 8.5 55.328125 
Q 8.5 64.0625 14.71875 69.140625 
Q 20.953125 74.21875 31.78125 74.21875 
Q 42.671875 74.21875 48.875 69.140625 
Q 55.078125 64.0625 55.078125 55.328125 
Q 55.078125 49.078125 51.53125 44.71875 
Q 48 40.375 41.703125 38.8125 
Q 48.828125 37.15625 52.796875 32.3125 
Q 56.78125 27.484375 56.78125 20.515625 
Q 56.78125 9.90625 50.3125 4.234375 
Q 43.84375 -1.421875 31.78125 -1.421875 
Q 19.734375 -1.421875 13.25 4.234375 
Q 6.78125 9.90625 6.78125 20.515625 
Q 6.78125 27.484375 10.78125 32.3125 
Q 14.796875 37.15625 21.921875 38.8125 
z
M 18.3125 54.390625 
Q 18.3125 48.734375 21.84375 45.5625 
Q 25.390625 42.390625 31.78125 42.390625 
Q 38.140625 42.390625 41.71875 45.5625 
Q 45.3125 48.734375 45.3125 54.390625 
Q 45.3125 60.0625 41.71875 63.234375 
Q 38.140625 66.40625 31.78125 66.40625 
Q 25.390625 66.40625 21.84375 63.234375 
Q 18.3125 60.0625 18.3125 54.390625 
z
" id="DejaVuSans-38"/>
      </defs>
      <g transform="translate(324.272597 322.182437)scale(0.1 -0.1)">
       <use xlink:href="#DejaVuSans-38"/>
       <use x="63.623047" xlink:href="#DejaVuSans-30"/>
       <use x="127.246094" xlink:href="#DejaVuSans-30"/>
      </g>
     </g>
    </g>
    <g id="xtick_6">
     <g id="line2d_6">
      <g>
       <use style="stroke:#000000;stroke-width:0.8;" x="398.812252" xlink:href="#m0677724986" y="307.584"/>
      </g>
     </g>
     <g id="text_6">
      <!-- 1000 -->
      <defs>
       <path d="M 12.40625 8.296875 
L 28.515625 8.296875 
L 28.515625 63.921875 
L 10.984375 60.40625 
L 10.984375 69.390625 
L 28.421875 72.90625 
L 38.28125 72.90625 
L 38.28125 8.296875 
L 54.390625 8.296875 
L 54.390625 0 
L 12.40625 0 
z
" id="DejaVuSans-31"/>
      </defs>
      <g transform="translate(386.087252 322.182437)scale(0.1 -0.1)">
       <use xlink:href="#DejaVuSans-31"/>
       <use x="63.623047" xlink:href="#DejaVuSans-30"/>
       <use x="127.246094" xlink:href="#DejaVuSans-30"/>
       <use x="190.869141" xlink:href="#DejaVuSans-30"/>
      </g>
     </g>
    </g>
    <g id="text_7">
     <!-- Iteration -->
     <defs>
      <path d="M 9.8125 72.90625 
L 19.671875 72.90625 
L 19.671875 0 
L 9.8125 0 
z
" id="DejaVuSans-49"/>
      <path d="M 18.3125 70.21875 
L 18.3125 54.6875 
L 36.8125 54.6875 
L 36.8125 47.703125 
L 18.3125 47.703125 
L 18.3125 18.015625 
Q 18.3125 11.328125 20.140625 9.421875 
Q 21.96875 7.515625 27.59375 7.515625 
L 36.8125 7.515625 
L 36.8125 0 
L 27.59375 0 
Q 17.1875 0 13.234375 3.875 
Q 9.28125 7.765625 9.28125 18.015625 
L 9.28125 47.703125 
L 2.6875 47.703125 
L 2.6875 54.6875 
L 9.28125 54.6875 
L 9.28125 70.21875 
z
" id="DejaVuSans-74"/>
      <path d="M 56.203125 29.59375 
L 56.203125 25.203125 
L 14.890625 25.203125 
Q 15.484375 15.921875 20.484375 11.0625 
Q 25.484375 6.203125 34.421875 6.203125 
Q 39.59375 6.203125 44.453125 7.46875 
Q 49.3125 8.734375 54.109375 11.28125 
L 54.109375 2.78125 
Q 49.265625 0.734375 44.1875 -0.34375 
Q 39.109375 -1.421875 33.890625 -1.421875 
Q 20.796875 -1.421875 13.15625 6.1875 
Q 5.515625 13.8125 5.515625 26.8125 
Q 5.515625 40.234375 12.765625 48.109375 
Q 20.015625 56 32.328125 56 
Q 43.359375 56 49.78125 48.890625 
Q 56.203125 41.796875 56.203125 29.59375 
z
M 47.21875 32.234375 
Q 47.125 39.59375 43.09375 43.984375 
Q 39.0625 48.390625 32.421875 48.390625 
Q 24.90625 48.390625 20.390625 44.140625 
Q 15.875 39.890625 15.1875 32.171875 
z
" id="DejaVuSans-65"/>
      <path d="M 41.109375 46.296875 
Q 39.59375 47.171875 37.8125 47.578125 
Q 36.03125 48 33.890625 48 
Q 26.265625 48 22.1875 43.046875 
Q 18.109375 38.09375 18.109375 28.8125 
L 18.109375 0 
L 9.078125 0 
L 9.078125 54.6875 
L 18.109375 54.6875 
L 18.109375 46.1875 
Q 20.953125 51.171875 25.484375 53.578125 
Q 30.03125 56 36.53125 56 
Q 37.453125 56 38.578125 55.875 
Q 39.703125 55.765625 41.0625 55.515625 
z
" id="DejaVuSans-72"/>
      <path d="M 34.28125 27.484375 
Q 23.390625 27.484375 19.1875 25 
Q 14.984375 22.515625 14.984375 16.5 
Q 14.984375 11.71875 18.140625 8.90625 
Q 21.296875 6.109375 26.703125 6.109375 
Q 34.1875 6.109375 38.703125 11.40625 
Q 43.21875 16.703125 43.21875 25.484375 
L 43.21875 27.484375 
z
M 52.203125 31.203125 
L 52.203125 0 
L 43.21875 0 
L 43.21875 8.296875 
Q 40.140625 3.328125 35.546875 0.953125 
Q 30.953125 -1.421875 24.3125 -1.421875 
Q 15.921875 -1.421875 10.953125 3.296875 
Q 6 8.015625 6 15.921875 
Q 6 25.140625 12.171875 29.828125 
Q 18.359375 34.515625 30.609375 34.515625 
L 43.21875 34.515625 
L 43.21875 35.40625 
Q 43.21875 41.609375 39.140625 45 
Q 35.0625 48.390625 27.6875 48.390625 
Q 23 48.390625 18.546875 47.265625 
Q 14.109375 46.140625 10.015625 43.890625 
L 10.015625 52.203125 
Q 14.9375 54.109375 19.578125 55.046875 
Q 24.21875 56 28.609375 56 
Q 40.484375 56 46.34375 49.84375 
Q 52.203125 43.703125 52.203125 31.203125 
z
" id="DejaVuSans-61"/>
      <path d="M 9.421875 54.6875 
L 18.40625 54.6875 
L 18.40625 0 
L 9.421875 0 
z
M 9.421875 75.984375 
L 18.40625 75.984375 
L 18.40625 64.59375 
L 9.421875 64.59375 
z
" id="DejaVuSans-69"/>
      <path d="M 30.609375 48.390625 
Q 23.390625 48.390625 19.1875 42.75 
Q 14.984375 37.109375 14.984375 27.296875 
Q 14.984375 17.484375 19.15625 11.84375 
Q 23.34375 6.203125 30.609375 6.203125 
Q 37.796875 6.203125 41.984375 11.859375 
Q 46.1875 17.53125 46.1875 27.296875 
Q 46.1875 37.015625 41.984375 42.703125 
Q 37.796875 48.390625 30.609375 48.390625 
z
M 30.609375 56 
Q 42.328125 56 49.015625 48.375 
Q 55.71875 40.765625 55.71875 27.296875 
Q 55.71875 13.875 49.015625 6.21875 
Q 42.328125 -1.421875 30.609375 -1.421875 
Q 18.84375 -1.421875 12.171875 6.21875 
Q 5.515625 13.875 5.515625 27.296875 
Q 5.515625 40.765625 12.171875 48.375 
Q 18.84375 56 30.609375 56 
z
" id="DejaVuSans-6f"/>
      <path d="M 54.890625 33.015625 
L 54.890625 0 
L 45.90625 0 
L 45.90625 32.71875 
Q 45.90625 40.484375 42.875 44.328125 
Q 39.84375 48.1875 33.796875 48.1875 
Q 26.515625 48.1875 22.3125 43.546875 
Q 18.109375 38.921875 18.109375 30.90625 
L 18.109375 0 
L 9.078125 0 
L 9.078125 54.6875 
L 18.109375 54.6875 
L 18.109375 46.1875 
Q 21.34375 51.125 25.703125 53.5625 
Q 30.078125 56 35.796875 56 
Q 45.21875 56 50.046875 50.171875 
Q 54.890625 44.34375 54.890625 33.015625 
z
" id="DejaVuSans-6e"/>
     </defs>
     <g transform="translate(214.951406 335.860562)scale(0.1 -0.1)">
      <use xlink:href="#DejaVuSans-49"/>
      <use x="29.492188" xlink:href="#DejaVuSans-74"/>
      <use x="68.701172" xlink:href="#DejaVuSans-65"/>
      <use x="130.224609" xlink:href="#DejaVuSans-72"/>
      <use x="171.337891" xlink:href="#DejaVuSans-61"/>
      <use x="232.617188" xlink:href="#DejaVuSans-74"/>
      <use x="271.826172" xlink:href="#DejaVuSans-69"/>
      <use x="299.609375" xlink:href="#DejaVuSans-6f"/>
      <use x="360.791016" xlink:href="#DejaVuSans-6e"/>
     </g>
    </g>
   </g>
   <g id="matplotlib.axis_2">
    <g id="ytick_1">
     <g id="line2d_7">
      <defs>
       <path d="M 0 0 
L -3.5 0 
" id="me0a2fe6b86" style="stroke:#000000;stroke-width:0.8;"/>
      </defs>
      <g>
       <use style="stroke:#000000;stroke-width:0.8;" x="57.6" xlink:href="#me0a2fe6b86" y="305.248117"/>
      </g>
     </g>
     <g id="text_8">
      <!-- 8000 -->
      <g transform="translate(25.15 309.047336)scale(0.1 -0.1)">
       <use xlink:href="#DejaVuSans-38"/>
       <use x="63.623047" xlink:href="#DejaVuSans-30"/>
       <use x="127.246094" xlink:href="#DejaVuSans-30"/>
       <use x="190.869141" xlink:href="#DejaVuSans-30"/>
      </g>
     </g>
    </g>
    <g id="ytick_2">
     <g id="line2d_8">
      <g>
       <use style="stroke:#000000;stroke-width:0.8;" x="57.6" xlink:href="#me0a2fe6b86" y="263.603108"/>
      </g>
     </g>
     <g id="text_9">
      <!-- 8500 -->
      <defs>
       <path d="M 10.796875 72.90625 
L 49.515625 72.90625 
L 49.515625 64.59375 
L 19.828125 64.59375 
L 19.828125 46.734375 
Q 21.96875 47.46875 24.109375 47.828125 
Q 26.265625 48.1875 28.421875 48.1875 
Q 40.625 48.1875 47.75 41.5 
Q 54.890625 34.8125 54.890625 23.390625 
Q 54.890625 11.625 47.5625 5.09375 
Q 40.234375 -1.421875 26.90625 -1.421875 
Q 22.3125 -1.421875 17.546875 -0.640625 
Q 12.796875 0.140625 7.71875 1.703125 
L 7.71875 11.625 
Q 12.109375 9.234375 16.796875 8.0625 
Q 21.484375 6.890625 26.703125 6.890625 
Q 35.15625 6.890625 40.078125 11.328125 
Q 45.015625 15.765625 45.015625 23.390625 
Q 45.015625 31 40.078125 35.4375 
Q 35.15625 39.890625 26.703125 39.890625 
Q 22.75 39.890625 18.8125 39.015625 
Q 14.890625 38.140625 10.796875 36.28125 
z
" id="DejaVuSans-35"/>
      </defs>
      <g transform="translate(25.15 267.402326)scale(0.1 -0.1)">
       <use xlink:href="#DejaVuSans-38"/>
       <use x="63.623047" xlink:href="#DejaVuSans-35"/>
       <use x="127.246094" xlink:href="#DejaVuSans-30"/>
       <use x="190.869141" xlink:href="#DejaVuSans-30"/>
      </g>
     </g>
    </g>
    <g id="ytick_3">
     <g id="line2d_9">
      <g>
       <use style="stroke:#000000;stroke-width:0.8;" x="57.6" xlink:href="#me0a2fe6b86" y="221.958098"/>
      </g>
     </g>
     <g id="text_10">
      <!-- 9000 -->
      <defs>
       <path d="M 10.984375 1.515625 
L 10.984375 10.5 
Q 14.703125 8.734375 18.5 7.8125 
Q 22.3125 6.890625 25.984375 6.890625 
Q 35.75 6.890625 40.890625 13.453125 
Q 46.046875 20.015625 46.78125 33.40625 
Q 43.953125 29.203125 39.59375 26.953125 
Q 35.25 24.703125 29.984375 24.703125 
Q 19.046875 24.703125 12.671875 31.3125 
Q 6.296875 37.9375 6.296875 49.421875 
Q 6.296875 60.640625 12.9375 67.421875 
Q 19.578125 74.21875 30.609375 74.21875 
Q 43.265625 74.21875 49.921875 64.515625 
Q 56.59375 54.828125 56.59375 36.375 
Q 56.59375 19.140625 48.40625 8.859375 
Q 40.234375 -1.421875 26.421875 -1.421875 
Q 22.703125 -1.421875 18.890625 -0.6875 
Q 15.09375 0.046875 10.984375 1.515625 
z
M 30.609375 32.421875 
Q 37.25 32.421875 41.125 36.953125 
Q 45.015625 41.5 45.015625 49.421875 
Q 45.015625 57.28125 41.125 61.84375 
Q 37.25 66.40625 30.609375 66.40625 
Q 23.96875 66.40625 20.09375 61.84375 
Q 16.21875 57.28125 16.21875 49.421875 
Q 16.21875 41.5 20.09375 36.953125 
Q 23.96875 32.421875 30.609375 32.421875 
z
" id="DejaVuSans-39"/>
      </defs>
      <g transform="translate(25.15 225.757317)scale(0.1 -0.1)">
       <use xlink:href="#DejaVuSans-39"/>
       <use x="63.623047" xlink:href="#DejaVuSans-30"/>
       <use x="127.246094" xlink:href="#DejaVuSans-30"/>
       <use x="190.869141" xlink:href="#DejaVuSans-30"/>
      </g>
     </g>
    </g>
    <g id="ytick_4">
     <g id="line2d_10">
      <g>
       <use style="stroke:#000000;stroke-width:0.8;" x="57.6" xlink:href="#me0a2fe6b86" y="180.313089"/>
      </g>
     </g>
     <g id="text_11">
      <!-- 9500 -->
      <g transform="translate(25.15 184.112308)scale(0.1 -0.1)">
       <use xlink:href="#DejaVuSans-39"/>
       <use x="63.623047" xlink:href="#DejaVuSans-35"/>
       <use x="127.246094" xlink:href="#DejaVuSans-30"/>
       <use x="190.869141" xlink:href="#DejaVuSans-30"/>
      </g>
     </g>
    </g>
    <g id="ytick_5">
     <g id="line2d_11">
      <g>
       <use style="stroke:#000000;stroke-width:0.8;" x="57.6" xlink:href="#me0a2fe6b86" y="138.668079"/>
      </g>
     </g>
     <g id="text_12">
      <!-- 10000 -->
      <g transform="translate(18.7875 142.467298)scale(0.1 -0.1)">
       <use xlink:href="#DejaVuSans-31"/>
       <use x="63.623047" xlink:href="#DejaVuSans-30"/>
       <use x="127.246094" xlink:href="#DejaVuSans-30"/>
       <use x="190.869141" xlink:href="#DejaVuSans-30"/>
       <use x="254.492188" xlink:href="#DejaVuSans-30"/>
      </g>
     </g>
    </g>
    <g id="ytick_6">
     <g id="line2d_12">
      <g>
       <use style="stroke:#000000;stroke-width:0.8;" x="57.6" xlink:href="#me0a2fe6b86" y="97.02307"/>
      </g>
     </g>
     <g id="text_13">
      <!-- 10500 -->
      <g transform="translate(18.7875 100.822289)scale(0.1 -0.1)">
       <use xlink:href="#DejaVuSans-31"/>
       <use x="63.623047" xlink:href="#DejaVuSans-30"/>
       <use x="127.246094" xlink:href="#DejaVuSans-35"/>
       <use x="190.869141" xlink:href="#DejaVuSans-30"/>
       <use x="254.492188" xlink:href="#DejaVuSans-30"/>
      </g>
     </g>
    </g>
    <g id="ytick_7">
     <g id="line2d_13">
      <g>
       <use style="stroke:#000000;stroke-width:0.8;" x="57.6" xlink:href="#me0a2fe6b86" y="55.378061"/>
      </g>
     </g>
     <g id="text_14">
      <!-- 11000 -->
      <g transform="translate(18.7875 59.17728)scale(0.1 -0.1)">
       <use xlink:href="#DejaVuSans-31"/>
       <use x="63.623047" xlink:href="#DejaVuSans-31"/>
       <use x="127.246094" xlink:href="#DejaVuSans-30"/>
       <use x="190.869141" xlink:href="#DejaVuSans-30"/>
       <use x="254.492188" xlink:href="#DejaVuSans-30"/>
      </g>
     </g>
    </g>
    <g id="text_15">
     <!-- Best Firefly Luminosity -->
     <defs>
      <path d="M 19.671875 34.8125 
L 19.671875 8.109375 
L 35.5 8.109375 
Q 43.453125 8.109375 47.28125 11.40625 
Q 51.125 14.703125 51.125 21.484375 
Q 51.125 28.328125 47.28125 31.5625 
Q 43.453125 34.8125 35.5 34.8125 
z
M 19.671875 64.796875 
L 19.671875 42.828125 
L 34.28125 42.828125 
Q 41.5 42.828125 45.03125 45.53125 
Q 48.578125 48.25 48.578125 53.8125 
Q 48.578125 59.328125 45.03125 62.0625 
Q 41.5 64.796875 34.28125 64.796875 
z
M 9.8125 72.90625 
L 35.015625 72.90625 
Q 46.296875 72.90625 52.390625 68.21875 
Q 58.5 63.53125 58.5 54.890625 
Q 58.5 48.1875 55.375 44.234375 
Q 52.25 40.28125 46.1875 39.3125 
Q 53.46875 37.75 57.5 32.78125 
Q 61.53125 27.828125 61.53125 20.40625 
Q 61.53125 10.640625 54.890625 5.3125 
Q 48.25 0 35.984375 0 
L 9.8125 0 
z
" id="DejaVuSans-42"/>
      <path d="M 44.28125 53.078125 
L 44.28125 44.578125 
Q 40.484375 46.53125 36.375 47.5 
Q 32.28125 48.484375 27.875 48.484375 
Q 21.1875 48.484375 17.84375 46.4375 
Q 14.5 44.390625 14.5 40.28125 
Q 14.5 37.15625 16.890625 35.375 
Q 19.28125 33.59375 26.515625 31.984375 
L 29.59375 31.296875 
Q 39.15625 29.25 43.1875 25.515625 
Q 47.21875 21.78125 47.21875 15.09375 
Q 47.21875 7.46875 41.1875 3.015625 
Q 35.15625 -1.421875 24.609375 -1.421875 
Q 20.21875 -1.421875 15.453125 -0.5625 
Q 10.6875 0.296875 5.421875 2 
L 5.421875 11.28125 
Q 10.40625 8.6875 15.234375 7.390625 
Q 20.0625 6.109375 24.8125 6.109375 
Q 31.15625 6.109375 34.5625 8.28125 
Q 37.984375 10.453125 37.984375 14.40625 
Q 37.984375 18.0625 35.515625 20.015625 
Q 33.0625 21.96875 24.703125 23.78125 
L 21.578125 24.515625 
Q 13.234375 26.265625 9.515625 29.90625 
Q 5.8125 33.546875 5.8125 39.890625 
Q 5.8125 47.609375 11.28125 51.796875 
Q 16.75 56 26.8125 56 
Q 31.78125 56 36.171875 55.265625 
Q 40.578125 54.546875 44.28125 53.078125 
z
" id="DejaVuSans-73"/>
      <path id="DejaVuSans-20"/>
      <path d="M 9.8125 72.90625 
L 51.703125 72.90625 
L 51.703125 64.59375 
L 19.671875 64.59375 
L 19.671875 43.109375 
L 48.578125 43.109375 
L 48.578125 34.8125 
L 19.671875 34.8125 
L 19.671875 0 
L 9.8125 0 
z
" id="DejaVuSans-46"/>
      <path d="M 37.109375 75.984375 
L 37.109375 68.5 
L 28.515625 68.5 
Q 23.6875 68.5 21.796875 66.546875 
Q 19.921875 64.59375 19.921875 59.515625 
L 19.921875 54.6875 
L 34.71875 54.6875 
L 34.71875 47.703125 
L 19.921875 47.703125 
L 19.921875 0 
L 10.890625 0 
L 10.890625 47.703125 
L 2.296875 47.703125 
L 2.296875 54.6875 
L 10.890625 54.6875 
L 10.890625 58.5 
Q 10.890625 67.625 15.140625 71.796875 
Q 19.390625 75.984375 28.609375 75.984375 
z
" id="DejaVuSans-66"/>
      <path d="M 9.421875 75.984375 
L 18.40625 75.984375 
L 18.40625 0 
L 9.421875 0 
z
" id="DejaVuSans-6c"/>
      <path d="M 32.171875 -5.078125 
Q 28.375 -14.84375 24.75 -17.8125 
Q 21.140625 -20.796875 15.09375 -20.796875 
L 7.90625 -20.796875 
L 7.90625 -13.28125 
L 13.1875 -13.28125 
Q 16.890625 -13.28125 18.9375 -11.515625 
Q 21 -9.765625 23.484375 -3.21875 
L 25.09375 0.875 
L 2.984375 54.6875 
L 12.5 54.6875 
L 29.59375 11.921875 
L 46.6875 54.6875 
L 56.203125 54.6875 
z
" id="DejaVuSans-79"/>
      <path d="M 9.8125 72.90625 
L 19.671875 72.90625 
L 19.671875 8.296875 
L 55.171875 8.296875 
L 55.171875 0 
L 9.8125 0 
z
" id="DejaVuSans-4c"/>
      <path d="M 8.5 21.578125 
L 8.5 54.6875 
L 17.484375 54.6875 
L 17.484375 21.921875 
Q 17.484375 14.15625 20.5 10.265625 
Q 23.53125 6.390625 29.59375 6.390625 
Q 36.859375 6.390625 41.078125 11.03125 
Q 45.3125 15.671875 45.3125 23.6875 
L 45.3125 54.6875 
L 54.296875 54.6875 
L 54.296875 0 
L 45.3125 0 
L 45.3125 8.40625 
Q 42.046875 3.421875 37.71875 1 
Q 33.40625 -1.421875 27.6875 -1.421875 
Q 18.265625 -1.421875 13.375 4.4375 
Q 8.5 10.296875 8.5 21.578125 
z
M 31.109375 56 
z
" id="DejaVuSans-75"/>
      <path d="M 52 44.1875 
Q 55.375 50.25 60.0625 53.125 
Q 64.75 56 71.09375 56 
Q 79.640625 56 84.28125 50.015625 
Q 88.921875 44.046875 88.921875 33.015625 
L 88.921875 0 
L 79.890625 0 
L 79.890625 32.71875 
Q 79.890625 40.578125 77.09375 44.375 
Q 74.3125 48.1875 68.609375 48.1875 
Q 61.625 48.1875 57.5625 43.546875 
Q 53.515625 38.921875 53.515625 30.90625 
L 53.515625 0 
L 44.484375 0 
L 44.484375 32.71875 
Q 44.484375 40.625 41.703125 44.40625 
Q 38.921875 48.1875 33.109375 48.1875 
Q 26.21875 48.1875 22.15625 43.53125 
Q 18.109375 38.875 18.109375 30.90625 
L 18.109375 0 
L 9.078125 0 
L 9.078125 54.6875 
L 18.109375 54.6875 
L 18.109375 46.1875 
Q 21.1875 51.21875 25.484375 53.609375 
Q 29.78125 56 35.6875 56 
Q 41.65625 56 45.828125 52.96875 
Q 50 49.953125 52 44.1875 
z
" id="DejaVuSans-6d"/>
     </defs>
     <g transform="translate(12.707812 231.631125)rotate(-90)scale(0.1 -0.1)">
      <use xlink:href="#DejaVuSans-42"/>
      <use x="68.603516" xlink:href="#DejaVuSans-65"/>
      <use x="130.126953" xlink:href="#DejaVuSans-73"/>
      <use x="182.226562" xlink:href="#DejaVuSans-74"/>
      <use x="221.435547" xlink:href="#DejaVuSans-20"/>
      <use x="253.222656" xlink:href="#DejaVuSans-46"/>
      <use x="310.632812" xlink:href="#DejaVuSans-69"/>
      <use x="338.416016" xlink:href="#DejaVuSans-72"/>
      <use x="379.498047" xlink:href="#DejaVuSans-65"/>
      <use x="441.021484" xlink:href="#DejaVuSans-66"/>
      <use x="476.226562" xlink:href="#DejaVuSans-6c"/>
      <use x="504.009766" xlink:href="#DejaVuSans-79"/>
      <use x="563.189453" xlink:href="#DejaVuSans-20"/>
      <use x="594.976562" xlink:href="#DejaVuSans-4c"/>
      <use x="650.673828" xlink:href="#DejaVuSans-75"/>
      <use x="714.052734" xlink:href="#DejaVuSans-6d"/>
      <use x="811.464844" xlink:href="#DejaVuSans-69"/>
      <use x="839.248047" xlink:href="#DejaVuSans-6e"/>
      <use x="902.626953" xlink:href="#DejaVuSans-6f"/>
      <use x="963.808594" xlink:href="#DejaVuSans-73"/>
      <use x="1015.908203" xlink:href="#DejaVuSans-69"/>
      <use x="1043.691406" xlink:href="#DejaVuSans-74"/>
      <use x="1082.900391" xlink:href="#DejaVuSans-79"/>
     </g>
    </g>
   </g>
   <g id="line2d_14">
    <path clip-path="url(#pd7e16407e8)" d="M 73.832727 55.870024 
L 74.157707 63.702298 
L 74.807666 68.261398 
L 75.132645 70.356503 
L 75.782604 73.106784 
L 76.432563 74.249202 
L 76.757543 74.411341 
L 77.407502 75.884508 
L 77.732482 75.979499 
L 78.057461 77.036253 
L 78.382441 77.210083 
L 78.70742 78.058203 
L 79.357379 81.182608 
L 80.007338 82.472214 
L 80.332318 82.678241 
L 80.657297 83.383359 
L 81.957215 84.97304 
L 82.282195 85.419579 
L 82.607174 85.644544 
L 83.257133 86.441193 
L 85.53199 88.132336 
L 85.85697 88.416995 
L 86.181949 89.497973 
L 86.506929 89.582983 
L 87.156888 89.996523 
L 87.481867 90.024988 
L 88.131826 90.380427 
L 88.781785 90.563595 
L 89.106765 90.597754 
L 89.756724 90.950068 
L 90.406683 91.610643 
L 93.006519 92.124147 
L 93.656478 92.399254 
L 94.306437 92.476497 
L 95.281376 92.721913 
L 95.606355 93.345223 
L 96.581294 93.572662 
L 98.856151 93.907722 
L 99.50611 94.301502 
L 100.481048 94.70603 
L 102.105946 94.889125 
L 102.430925 95.105513 
L 102.755905 95.105513 
L 103.080885 95.356673 
L 104.705782 95.747605 
L 105.030762 95.785696 
L 105.355741 95.98033 
L 105.680721 95.98033 
L 106.33068 96.491473 
L 107.630598 96.521654 
L 108.280557 97.031473 
L 109.580475 97.118564 
L 109.905455 97.435498 
L 110.880393 97.682801 
L 111.205373 97.815415 
L 112.83027 97.921991 
L 113.480229 98.250454 
L 113.805209 98.250454 
L 114.130188 98.492431 
L 115.105127 98.617577 
L 115.430106 98.843756 
L 116.730025 98.929821 
L 117.704963 98.982964 
L 118.679902 99.064085 
L 119.97982 99.28035 
L 120.629779 99.314628 
L 120.954758 99.758453 
L 121.604717 99.813947 
L 121.929697 100.204914 
L 122.579656 100.339848 
L 123.229615 101.101918 
L 124.529533 101.494576 
L 124.854513 101.965414 
L 125.504472 102.211999 
L 126.154431 102.308877 
L 126.80439 102.360776 
L 127.454349 103.242627 
L 128.104308 103.242627 
L 128.429287 103.524029 
L 128.754267 103.551657 
L 130.379165 104.436996 
L 132.329042 104.892758 
L 132.654021 105.35097 
L 132.979001 105.523031 
L 133.953939 105.612212 
L 134.603898 106.597787 
L 134.928878 106.625367 
L 135.578837 106.847932 
L 135.903817 106.875948 
L 136.553776 107.684014 
L 136.878755 107.706463 
L 137.203735 107.846158 
L 137.853694 108.569762 
L 138.503653 108.588952 
L 139.153612 108.873543 
L 139.478591 108.894969 
L 140.45353 109.795196 
L 140.778509 109.892253 
L 141.103489 110.265085 
L 141.753448 110.442727 
L 142.078428 110.980503 
L 142.403407 111.048902 
L 142.728387 111.287258 
L 143.703325 111.406176 
L 144.028305 111.765377 
L 144.353284 112.966144 
L 144.678264 113.532802 
L 146.303161 115.017724 
L 146.95312 115.123911 
L 147.603079 115.700263 
L 147.928059 115.750446 
L 148.578018 116.83829 
L 148.902998 116.911058 
L 149.227977 117.427455 
L 150.527895 117.598781 
L 151.502834 118.577268 
L 152.152793 118.997647 
L 152.477772 119.142127 
L 152.802752 119.564851 
L 153.77769 119.821552 
L 154.427649 120.363663 
L 155.402588 121.518326 
L 155.727568 121.557352 
L 156.052547 121.908223 
L 156.377527 122.583361 
L 156.702506 122.847518 
L 157.027486 122.928859 
L 157.352465 123.167562 
L 157.677445 123.606666 
L 158.327404 123.974414 
L 158.977363 124.623567 
L 159.302342 124.667513 
L 159.952301 125.343812 
L 160.60226 126.315132 
L 161.252219 126.647917 
L 161.577199 126.667733 
L 162.227158 127.379916 
L 162.877117 127.566281 
L 163.527076 128.187164 
L 163.852056 129.039185 
L 164.177035 129.575358 
L 164.502015 129.860615 
L 164.826994 130.555197 
L 165.151974 130.878314 
L 165.801933 131.016857 
L 166.776871 132.151783 
L 167.101851 132.35422 
L 167.42683 133.164422 
L 167.75181 133.358011 
L 168.07679 133.950043 
L 168.726749 134.531299 
L 169.051728 135.170512 
L 169.376708 135.516062 
L 169.701687 136.178189 
L 170.026667 136.226746 
L 170.351646 136.592326 
L 171.001605 137.92008 
L 171.326585 138.077273 
L 171.651564 138.445678 
L 172.301523 138.871195 
L 173.276462 139.573562 
L 173.601441 139.654013 
L 173.926421 140.012374 
L 175.551319 142.765505 
L 175.876298 143.698559 
L 176.201278 143.895956 
L 177.501196 146.153081 
L 177.826175 146.595216 
L 178.151155 147.509876 
L 178.801114 147.677311 
L 179.126093 147.856777 
L 180.101032 149.103191 
L 180.426011 149.304496 
L 181.40095 150.590629 
L 182.050909 150.852902 
L 182.375889 151.145433 
L 182.700868 151.27126 
L 183.025848 151.55764 
L 183.350827 152.385887 
L 183.675807 152.476528 
L 184.650745 154.120892 
L 185.625684 155.070742 
L 185.950663 156.148185 
L 186.275643 156.637454 
L 186.600622 156.858668 
L 186.925602 157.275359 
L 187.250581 158.036582 
L 187.575561 158.2428 
L 188.22552 159.325977 
L 189.200459 160.519636 
L 189.525438 160.68612 
L 189.850418 161.095321 
L 190.500377 161.394391 
L 190.825356 162.58202 
L 191.475315 164.097895 
L 191.800295 165.507955 
L 192.125274 166.10359 
L 192.775233 167.889066 
L 193.100213 168.110838 
L 193.750172 169.417532 
L 194.400131 171.173581 
L 194.725111 171.413439 
L 195.37507 172.402983 
L 196.025029 172.965498 
L 196.350008 172.965498 
L 196.674988 173.127591 
L 196.999967 173.581526 
L 197.649926 173.737755 
L 198.949844 174.676361 
L 199.599803 176.005317 
L 199.924783 176.707296 
L 200.574742 177.475313 
L 200.899722 177.979561 
L 201.224701 178.095319 
L 201.549681 178.706661 
L 202.19964 179.150637 
L 202.524619 180.171819 
L 203.824537 181.744539 
L 204.474496 181.799773 
L 204.799476 182.068329 
L 205.124455 182.568628 
L 205.449435 182.782667 
L 205.774414 183.233367 
L 206.099394 183.436476 
L 206.424373 184.303646 
L 207.074333 185.22774 
L 207.399312 186.080443 
L 207.724292 186.603171 
L 208.049271 187.459817 
L 208.374251 187.951862 
L 208.69923 187.952301 
L 209.349189 188.824946 
L 209.674169 188.926735 
L 209.999148 189.185879 
L 210.324128 189.624223 
L 210.974087 189.88099 
L 211.299066 190.233828 
L 211.624046 191.184312 
L 211.949025 191.451354 
L 212.598984 192.140596 
L 212.923964 192.293184 
L 213.573923 192.970086 
L 213.898903 193.049831 
L 214.223882 193.461369 
L 214.548862 193.48991 
L 215.198821 194.749815 
L 215.5238 195.241556 
L 215.84878 196.18843 
L 216.173759 196.393724 
L 216.498739 196.96134 
L 217.798657 198.165175 
L 218.123636 198.278333 
L 218.448616 198.592386 
L 219.098575 199.685009 
L 219.423554 199.733263 
L 219.748534 199.918063 
L 220.073514 200.2923 
L 221.048452 200.66141 
L 221.373432 200.718245 
L 221.698411 201.01709 
L 222.998329 202.97052 
L 223.323309 203.878726 
L 223.648288 204.354078 
L 224.298247 204.429693 
L 225.273186 205.831663 
L 225.598165 205.971814 
L 226.898084 207.761879 
L 227.223063 208.594306 
L 227.873022 209.282124 
L 228.198002 209.764435 
L 228.522981 209.991262 
L 231.122817 213.634164 
L 231.447797 213.716413 
L 232.097756 214.846555 
L 232.747715 215.382092 
L 233.722654 217.047557 
L 235.022572 219.155187 
L 235.347551 219.516452 
L 235.672531 219.58655 
L 235.99751 220.193264 
L 236.32249 220.424512 
L 237.297428 221.716497 
L 238.272367 223.975533 
L 238.597346 224.315356 
L 238.922326 224.939912 
L 239.247305 225.276274 
L 240.222244 226.979104 
L 240.547224 228.037362 
L 241.847142 229.8582 
L 242.172121 230.453967 
L 242.497101 230.689548 
L 242.82208 231.388761 
L 243.797019 232.070559 
L 244.121998 232.886549 
L 244.446978 233.183276 
L 245.096937 234.590269 
L 245.421916 235.647525 
L 246.721835 238.015694 
L 247.371794 240.465085 
L 248.671712 242.879593 
L 248.996691 243.670348 
L 249.64665 244.435894 
L 249.97163 245.018948 
L 250.296609 245.954563 
L 250.946568 246.567472 
L 251.271548 247.206659 
L 252.896446 249.200507 
L 253.221425 250.611311 
L 253.871384 252.21673 
L 254.846323 254.319397 
L 255.171302 254.809904 
L 256.47122 258.101226 
L 257.446159 259.216378 
L 258.096118 260.330856 
L 259.071057 261.937303 
L 259.396036 262.615798 
L 260.370975 263.543656 
L 260.695954 264.240666 
L 261.995872 268.644147 
L 262.645831 269.906116 
L 263.29579 271.696028 
L 263.945749 273.005815 
L 264.270729 274.22482 
L 264.920688 275.592822 
L 267.845504 278.968286 
L 268.495463 279.403659 
L 270.12036 281.340899 
L 270.44534 281.488939 
L 271.420278 282.333526 
L 272.070238 282.631356 
L 272.720197 283.233129 
L 274.670074 284.416344 
L 274.995053 284.64469 
L 275.320033 284.697467 
L 276.619951 285.305434 
L 278.244848 285.69905 
L 280.844685 286.029762 
L 282.144603 286.130668 
L 283.444521 286.399779 
L 287.344275 286.557761 
L 287.994234 286.707185 
L 289.944111 286.726789 
L 398.487273 286.792629 
L 398.487273 286.792629 
" style="fill:none;stroke:#1f77b4;stroke-linecap:square;stroke-width:1.5;"/>
   </g>
   <g id="line2d_15">
    <path clip-path="url(#pd7e16407e8)" d="M 73.832727 53.568 
L 74.157707 61.52469 
L 74.482686 64.902843 
L 74.807666 66.942164 
L 75.132645 70.183406 
L 75.782604 74.078144 
L 76.432563 75.788873 
L 76.757543 77.612308 
L 77.407502 79.987664 
L 77.732482 80.455319 
L 78.057461 81.920817 
L 79.0324 84.304457 
L 79.357379 84.841769 
L 79.682359 85.090228 
L 80.332318 85.840014 
L 80.982277 86.312652 
L 81.632236 87.753213 
L 81.957215 87.819008 
L 82.607174 88.850909 
L 83.582113 89.211074 
L 85.207011 91.285967 
L 85.53199 91.436085 
L 86.181949 91.461235 
L 86.506929 91.851773 
L 86.831908 91.897253 
L 87.481867 92.146677 
L 87.806847 92.170083 
L 88.131826 92.470112 
L 88.456806 92.922009 
L 89.431744 93.589723 
L 90.081704 94.478504 
L 90.406683 94.804488 
L 91.381622 95.223063 
L 92.031581 95.244959 
L 92.35656 95.493514 
L 93.006519 95.508573 
L 93.331499 95.677272 
L 93.656478 96.018267 
L 93.981458 96.084293 
L 94.956396 96.895667 
L 96.581294 97.304431 
L 96.906274 97.502355 
L 97.881212 97.630566 
L 99.18113 98.866561 
L 99.831089 98.866561 
L 100.806028 99.378632 
L 101.455987 99.451053 
L 102.755905 99.990585 
L 103.405864 100.115831 
L 106.0057 100.397244 
L 106.655659 100.61396 
L 106.980639 100.787139 
L 107.955577 100.861708 
L 108.605536 101.028195 
L 108.930516 101.416376 
L 109.580475 101.591144 
L 110.230434 101.591144 
L 111.205373 102.178642 
L 111.855332 102.243087 
L 112.180311 102.903161 
L 112.505291 102.939606 
L 112.83027 103.162737 
L 113.15525 103.162737 
L 114.130188 103.479179 
L 114.455168 103.511697 
L 114.780147 103.897498 
L 115.430106 104.018302 
L 115.755086 104.018302 
L 116.405045 104.267412 
L 117.055004 104.273504 
L 117.379984 104.42169 
L 118.029943 105.113296 
L 119.97982 105.159839 
L 120.954758 105.766776 
L 121.929697 105.805771 
L 122.254676 106.195772 
L 122.579656 106.360412 
L 123.229615 106.373225 
L 124.204554 106.765323 
L 124.529533 106.794809 
L 124.854513 106.977425 
L 125.829451 107.058431 
L 126.154431 107.273371 
L 126.80439 107.354915 
L 127.779328 107.576397 
L 128.104308 107.713249 
L 128.754267 107.788374 
L 129.079247 107.841725 
L 129.404226 108.224505 
L 131.029124 108.32802 
L 131.679083 108.771977 
L 132.979001 108.874642 
L 133.953939 109.028243 
L 134.278919 109.028243 
L 134.603898 109.353181 
L 135.253857 109.428808 
L 135.578837 109.599035 
L 135.903817 109.619474 
L 136.878755 110.166921 
L 137.203735 110.623764 
L 137.528714 110.761844 
L 137.853694 110.761844 
L 138.178673 111.395523 
L 138.503653 111.635835 
L 139.153612 111.647195 
L 140.778509 112.402573 
L 142.403407 112.684883 
L 142.728387 113.887697 
L 144.678264 115.065971 
L 145.003243 115.273641 
L 145.328223 115.94719 
L 145.653202 116.105211 
L 145.978182 116.4432 
L 146.303161 116.617263 
L 146.628141 116.617263 
L 147.603079 117.272281 
L 148.902998 117.272281 
L 149.227977 117.666459 
L 149.552957 117.807771 
L 149.877936 117.807771 
L 151.502834 119.011131 
L 152.152793 120.18953 
L 153.127731 120.623173 
L 153.452711 121.557016 
L 153.77769 121.672191 
L 154.427649 122.231412 
L 155.402588 122.396414 
L 155.727568 122.755961 
L 156.052547 122.767118 
L 156.702506 123.349249 
L 157.027486 123.37817 
L 157.352465 123.52702 
L 158.002424 123.590246 
L 158.652383 123.703064 
L 159.302342 123.794625 
L 161.252219 124.334619 
L 161.577199 124.749093 
L 162.227158 124.961089 
L 162.877117 125.907423 
L 163.202097 125.914678 
L 163.527076 126.047272 
L 163.852056 126.682182 
L 164.177035 128.120457 
L 164.502015 128.406952 
L 165.476953 128.74885 
L 166.126912 129.512064 
L 166.451892 129.572947 
L 167.101851 130.267007 
L 167.75181 130.441743 
L 168.07679 130.656622 
L 168.726749 131.753993 
L 169.701687 131.924173 
L 170.351646 132.021255 
L 171.001605 132.579278 
L 171.326585 133.056172 
L 171.976544 133.714438 
L 172.301523 134.203995 
L 172.626503 134.290746 
L 173.601441 135.406816 
L 173.926421 135.552421 
L 174.57638 135.637423 
L 174.90136 135.779968 
L 175.876298 136.85868 
L 176.526257 138.383852 
L 176.851237 138.383852 
L 177.176216 139.11169 
L 177.501196 139.481996 
L 177.826175 140.081489 
L 178.151155 140.187588 
L 178.476134 140.825993 
L 178.801114 141.195492 
L 179.451073 141.442549 
L 179.776052 141.882417 
L 180.750991 142.489585 
L 181.075971 142.598485 
L 181.40095 143.213978 
L 181.72593 143.297537 
L 182.050909 144.034128 
L 182.700868 144.221568 
L 183.025848 144.591975 
L 183.350827 145.426283 
L 183.675807 145.728541 
L 184.000786 145.742623 
L 184.975725 146.527559 
L 186.275643 148.213883 
L 186.925602 148.413801 
L 187.250581 149.937115 
L 187.900541 151.178239 
L 188.22552 151.227064 
L 189.200459 151.954634 
L 189.525438 152.53525 
L 189.850418 152.875291 
L 190.175397 152.958722 
L 190.500377 153.16973 
L 191.475315 154.462565 
L 193.100213 158.328241 
L 193.425192 158.389515 
L 194.400131 159.931149 
L 194.725111 160.130552 
L 195.37507 161.540907 
L 195.700049 162.283984 
L 196.025029 162.502215 
L 196.999967 163.807735 
L 197.324947 164.001638 
L 198.949844 166.651798 
L 199.274824 166.781211 
L 199.924783 168.113608 
L 200.899722 169.885029 
L 201.224701 170.697753 
L 201.87466 171.294979 
L 202.19964 171.578484 
L 202.849599 172.30405 
L 203.499558 173.022986 
L 203.824537 173.155213 
L 204.149517 173.744833 
L 204.474496 173.855306 
L 204.799476 174.759845 
L 205.449435 174.815978 
L 205.774414 175.052909 
L 206.424373 175.967063 
L 206.749353 176.278 
L 207.399312 177.984459 
L 208.049271 178.832962 
L 209.02421 180.125659 
L 209.349189 180.75122 
L 209.674169 181.763776 
L 209.999148 182.342046 
L 210.324128 182.666235 
L 210.649107 183.348232 
L 210.974087 183.707677 
L 211.299066 184.696063 
L 212.274005 185.67451 
L 213.248943 188.254799 
L 213.573923 188.478142 
L 213.898903 188.960039 
L 214.223882 189.642962 
L 214.873841 191.83076 
L 215.5238 192.731249 
L 215.84878 193.575378 
L 216.498739 194.514634 
L 217.148698 196.287207 
L 217.798657 196.538298 
L 218.123636 197.298862 
L 218.448616 197.660445 
L 218.773595 197.758991 
L 219.098575 198.361448 
L 219.423554 198.567148 
L 219.748534 199.006958 
L 220.073514 199.670281 
L 220.398493 199.866171 
L 220.723473 200.30352 
L 221.048452 200.507556 
L 222.34837 202.801756 
L 222.67335 203.738852 
L 222.998329 204.136852 
L 223.973268 205.973544 
L 224.298247 206.740851 
L 224.623227 207.060691 
L 225.273186 207.240934 
L 225.598165 207.978368 
L 225.923145 208.234997 
L 226.248124 209.170908 
L 226.898084 210.152011 
L 227.548043 210.527614 
L 227.873022 211.00443 
L 228.198002 211.147286 
L 228.522981 211.885964 
L 228.847961 212.300419 
L 229.17294 212.357662 
L 229.49792 212.564195 
L 229.822899 212.928859 
L 231.122817 215.764757 
L 231.447797 216.134894 
L 231.772776 216.93349 
L 232.422735 217.871704 
L 232.747715 218.358759 
L 233.397674 220.022123 
L 234.372613 221.481322 
L 235.022572 222.396404 
L 235.347551 222.396624 
L 236.647469 224.111444 
L 236.972449 224.821966 
L 237.297428 225.205725 
L 237.622408 226.013126 
L 237.947387 227.574598 
L 238.272367 227.81807 
L 238.922326 228.668529 
L 239.247305 230.080631 
L 239.897265 231.33113 
L 240.872203 232.643676 
L 241.197183 232.90642 
L 241.847142 234.498034 
L 242.172121 234.954405 
L 242.497101 235.639358 
L 242.82208 236.690395 
L 243.472039 237.748152 
L 243.797019 238.567613 
L 244.121998 238.783706 
L 244.446978 239.210726 
L 244.771957 240.096188 
L 245.096937 240.327479 
L 246.071876 242.412081 
L 247.371794 246.164784 
L 248.021753 247.061782 
L 248.671712 248.704354 
L 249.321671 249.568502 
L 250.296609 251.880931 
L 250.946568 254.32646 
L 251.271548 254.821027 
L 251.596527 255.092243 
L 251.921507 255.574137 
L 252.246486 255.851276 
L 252.896446 256.679725 
L 254.196364 260.818809 
L 256.146241 265.406968 
L 256.47122 265.914745 
L 257.446159 268.099483 
L 257.771138 268.504453 
L 258.096118 269.286605 
L 259.396036 270.943408 
L 259.721016 271.606829 
L 260.695954 272.581995 
L 261.345913 274.48607 
L 262.970811 278.282668 
L 265.570647 283.030805 
L 265.895627 283.336394 
L 266.220606 284.118333 
L 266.545586 284.362425 
L 266.870565 284.920505 
L 268.495463 286.473023 
L 268.820442 287.072871 
L 269.145422 287.313025 
L 269.795381 288.468234 
L 270.770319 289.61177 
L 272.070238 290.435595 
L 272.395217 290.825603 
L 272.720197 291.037868 
L 273.045176 291.477789 
L 273.695135 291.858482 
L 274.020115 292.459961 
L 274.670074 292.992003 
L 277.26991 293.94767 
L 278.244848 294.068557 
L 278.894808 294.140315 
L 279.869746 294.374798 
L 280.519705 294.476812 
L 280.844685 294.727576 
L 282.794562 295.175509 
L 286.369337 295.291281 
L 291.893989 295.488 
L 398.487273 295.488 
L 398.487273 295.488 
" style="fill:none;stroke:#ff7f0e;stroke-linecap:square;stroke-width:1.5;"/>
   </g>
   <g id="patch_3">
    <path d="M 57.6 307.584 
L 57.6 41.472 
" style="fill:none;stroke:#000000;stroke-linecap:square;stroke-linejoin:miter;stroke-width:0.8;"/>
   </g>
   <g id="patch_4">
    <path d="M 414.72 307.584 
L 414.72 41.472 
" style="fill:none;stroke:#000000;stroke-linecap:square;stroke-linejoin:miter;stroke-width:0.8;"/>
   </g>
   <g id="patch_5">
    <path d="M 57.6 307.584 
L 414.72 307.584 
" style="fill:none;stroke:#000000;stroke-linecap:square;stroke-linejoin:miter;stroke-width:0.8;"/>
   </g>
   <g id="patch_6">
    <path d="M 57.6 41.472 
L 414.72 41.472 
" style="fill:none;stroke:#000000;stroke-linecap:square;stroke-linejoin:miter;stroke-width:0.8;"/>
   </g>
   <g id="legend_1">
    <g id="patch_7">
     <path d="M 322.4825 79.106375 
L 407.72 79.106375 
Q 409.72 79.106375 409.72 77.106375 
L 409.72 48.472 
Q 409.72 46.472 407.72 46.472 
L 322.4825 46.472 
Q 320.4825 46.472 320.4825 48.472 
L 320.4825 77.106375 
Q 320.4825 79.106375 322.4825 79.106375 
z
" style="fill:#ffffff;opacity:0.8;stroke:#cccccc;stroke-linejoin:miter;"/>
    </g>
    <g id="line2d_16">
     <path d="M 324.4825 54.570438 
L 344.4825 54.570438 
" style="fill:none;stroke:#1f77b4;stroke-linecap:square;stroke-width:1.5;"/>
    </g>
    <g id="line2d_17"/>
    <g id="text_16">
     <!-- not_sorted -->
     <defs>
      <path d="M 50.984375 -16.609375 
L 50.984375 -23.578125 
L -0.984375 -23.578125 
L -0.984375 -16.609375 
z
" id="DejaVuSans-5f"/>
      <path d="M 45.40625 46.390625 
L 45.40625 75.984375 
L 54.390625 75.984375 
L 54.390625 0 
L 45.40625 0 
L 45.40625 8.203125 
Q 42.578125 3.328125 38.25 0.953125 
Q 33.9375 -1.421875 27.875 -1.421875 
Q 17.96875 -1.421875 11.734375 6.484375 
Q 5.515625 14.40625 5.515625 27.296875 
Q 5.515625 40.1875 11.734375 48.09375 
Q 17.96875 56 27.875 56 
Q 33.9375 56 38.25 53.625 
Q 42.578125 51.265625 45.40625 46.390625 
z
M 14.796875 27.296875 
Q 14.796875 17.390625 18.875 11.75 
Q 22.953125 6.109375 30.078125 6.109375 
Q 37.203125 6.109375 41.296875 11.75 
Q 45.40625 17.390625 45.40625 27.296875 
Q 45.40625 37.203125 41.296875 42.84375 
Q 37.203125 48.484375 30.078125 48.484375 
Q 22.953125 48.484375 18.875 42.84375 
Q 14.796875 37.203125 14.796875 27.296875 
z
" id="DejaVuSans-64"/>
     </defs>
     <g transform="translate(352.4825 58.070438)scale(0.1 -0.1)">
      <use xlink:href="#DejaVuSans-6e"/>
      <use x="63.378906" xlink:href="#DejaVuSans-6f"/>
      <use x="124.560547" xlink:href="#DejaVuSans-74"/>
      <use x="163.769531" xlink:href="#DejaVuSans-5f"/>
      <use x="213.769531" xlink:href="#DejaVuSans-73"/>
      <use x="265.869141" xlink:href="#DejaVuSans-6f"/>
      <use x="327.050781" xlink:href="#DejaVuSans-72"/>
      <use x="368.164062" xlink:href="#DejaVuSans-74"/>
      <use x="407.373047" xlink:href="#DejaVuSans-65"/>
      <use x="468.896484" xlink:href="#DejaVuSans-64"/>
     </g>
    </g>
    <g id="line2d_18">
     <path d="M 324.4825 69.526688 
L 344.4825 69.526688 
" style="fill:none;stroke:#ff7f0e;stroke-linecap:square;stroke-width:1.5;"/>
    </g>
    <g id="line2d_19"/>
    <g id="text_17">
     <!-- sorted -->
     <g transform="translate(352.4825 73.026688)scale(0.1 -0.1)">
      <use xlink:href="#DejaVuSans-73"/>
      <use x="52.099609" xlink:href="#DejaVuSans-6f"/>
      <use x="113.28125" xlink:href="#DejaVuSans-72"/>
      <use x="154.394531" xlink:href="#DejaVuSans-74"/>
      <use x="193.603516" xlink:href="#DejaVuSans-65"/>
      <use x="255.126953" xlink:href="#DejaVuSans-64"/>
     </g>
    </g>
   </g>
  </g>
 </g>
 <defs>
  <clipPath id="pd7e16407e8">
   <rect height="266.112" width="357.12" x="57.6" y="41.472"/>
  </clipPath>
 </defs>
</svg>
